{"buffers":[{"uri":"Brenin.buf","byteLength":234748},{"byteLength":2253184,"extensions":{"EXT_meshopt_compression":{"fallback":true}}}],"asset":{"version":"2.0","generator":"gltfpack 0.21"},"extensionsUsed":["KHR_mesh_quantization","EXT_meshopt_compression","KHR_texture_transform","KHR_materials_transmission","KHR_materials_ior","KHR_materials_specular"],"extensionsRequired":["KHR_mesh_quantization","EXT_meshopt_compression"],"bufferViews":[{"buffer":1,"byteOffset":0,"byteLength":452968,"byteStride":8,"target":34962,"extensions":{"EXT_meshopt_compression":{"buffer":0,"byteOffset":0,"byteLength":89949,"byteStride":8,"mode":"ATTRIBUTES","count":56621}}},{"buffer":1,"byteOffset":452968,"byteLength":21812,"byteStride":4,"target":34962,"extensions":{"EXT_meshopt_compression":{"buffer":0,"byteOffset":89952,"byteLength":16021,"byteStride":4,"mode":"ATTRIBUTES","count":5453}}},{"buffer":1,"byteOffset":474780,"byteLength":21768,"byteStride":4,"target":34962,"extensions":{"EXT_meshopt_compression":{"buffer":0,"byteOffset":105976,"byteLength":13690,"byteStride":4,"mode":"ATTRIBUTES","count":5442}}},{"buffer":1,"byteOffset":496548,"byteLength":21812,"byteStride":4,"target":34962,"extensions":{"EXT_meshopt_compression":{"buffer":0,"byteOffset":119668,"byteLength":5924,"byteStride":4,"mode":"ATTRIBUTES","count":5453}}},{"buffer":1,"byteOffset":518360,"byteLength":21812,"byteStride":4,"target":34962,"extensions":{"EXT_meshopt_compression":{"buffer":0,"byteOffset":125592,"byteLength":7534,"byteStride":4,"mode":"ATTRIBUTES","count":5453}}},{"buffer":1,"byteOffset":540172,"byteLength":1645608,"byteStride":4,"target":34962,"extensions":{"EXT_meshopt_compression":{"buffer":0,"byteOffset":133128,"byteLength":83875,"byteStride":4,"mode":"ATTRIBUTES","count":411402}}},{"buffer":1,"byteOffset":2185780,"byteLength":57804,"target":34963,"extensions":{"EXT_meshopt_compression":{"buffer":0,"byteOffset":217004,"byteLength":11130,"byteStride":2,"mode":"TRIANGLES","count":28902}}},{"buffer":1,"byteOffset":2243584,"byteLength":9600,"extensions":{"EXT_meshopt_compression":{"buffer":0,"byteOffset":228136,"byteLength":6610,"byteStride":64,"mode":"ATTRIBUTES","count":150}}}],"accessors":[{"bufferView":0,"byteOffset":0,"componentType":5123,"count":1314,"type":"VEC3","min":[4907,10191,3687],"max":[6818,12549,4692]},{"bufferView":1,"byteOffset":0,"componentType":5120,"count":1314,"type":"VEC3","normalized":true},{"bufferView":2,"byteOffset":0,"componentType":5123,"count":1314,"type":"VEC2","normalized":true},{"bufferView":3,"byteOffset":0,"componentType":5121,"count":1314,"type":"VEC4"},{"bufferView":4,"byteOffset":0,"componentType":5121,"count":1314,"type":"VEC4","normalized":true},{"bufferView":0,"byteOffset":10512,"componentType":5122,"count":1314,"type":"VEC3","min":[-47,-131,-17],"max":[5,7,30]},{"bufferView":5,"byteOffset":0,"componentType":5120,"count":1314,"type":"VEC3","min":[-9,-79,-20],"max":[9,1,14]},{"bufferView":5,"byteOffset":5256,"componentType":5120,"count":1314,"type":"VEC3","min":[-81,-7,-22],"max":[0,13,22]},{"bufferView":5,"byteOffset":10512,"componentType":5120,"count":1314,"type":"VEC3","min":[-1,-8,-27],"max":[77,14,13]},{"bufferView":5,"byteOffset":15768,"componentType":5120,"count":1314,"type":"VEC3","min":[-9,-0,-21],"max":[18,63,3]},{"bufferView":5,"byteOffset":21024,"componentType":5120,"count":1314,"type":"VEC3","min":[-53,-0,-9],"max":[1,55,34]},{"bufferView":5,"byteOffset":26280,"componentType":5120,"count":1314,"type":"VEC3","min":[-18,-12,-20],"max":[7,49,5]},{"bufferView":0,"byteOffset":21024,"componentType":5122,"count":1314,"type":"VEC3","min":[-5,-131,-17],"max":[47,7,30]},{"bufferView":5,"byteOffset":31536,"componentType":5120,"count":1314,"type":"VEC3","min":[-9,-79,-20],"max":[9,1,14]},{"bufferView":5,"byteOffset":36792,"componentType":5120,"count":1314,"type":"VEC3","min":[-0,-7,-22],"max":[81,13,22]},{"bufferView":5,"byteOffset":42048,"componentType":5120,"count":1314,"type":"VEC3","min":[-77,-8,-27],"max":[1,14,13]},{"bufferView":5,"byteOffset":47304,"componentType":5120,"count":1314,"type":"VEC3","min":[-18,-0,-21],"max":[9,63,3]},{"bufferView":5,"byteOffset":52560,"componentType":5120,"count":1314,"type":"VEC3","min":[-1,-0,-9],"max":[53,55,34]},{"bufferView":5,"byteOffset":57816,"componentType":5120,"count":1314,"type":"VEC3","min":[-7,-12,-20],"max":[18,49,5]},{"bufferView":0,"byteOffset":31536,"componentType":5122,"count":1314,"type":"VEC3","min":[-24,-19,-1],"max":[24,19,137]},{"bufferView":5,"byteOffset":63072,"componentType":5120,"count":1314,"type":"VEC3","min":[-8,-10,-29],"max":[124,53,79]},{"bufferView":5,"byteOffset":68328,"componentType":5120,"count":1314,"type":"VEC3","min":[-124,-10,-29],"max":[8,53,79]},{"bufferView":0,"byteOffset":42048,"componentType":5122,"count":1314,"type":"VEC3","min":[-66,-554,-365],"max":[66,9,13]},{"bufferView":0,"byteOffset":52560,"componentType":5122,"count":1314,"type":"VEC3","min":[-33,-212,-67],"max":[33,360,174]},{"bufferView":0,"byteOffset":63072,"componentType":5122,"count":1314,"type":"VEC3","min":[-101,-151,-36],"max":[101,91,168]},{"bufferView":0,"byteOffset":73584,"componentType":5122,"count":1314,"type":"VEC3","min":[-97,-25,-0],"max":[98,57,153]},{"bufferView":0,"byteOffset":84096,"componentType":5122,"count":1314,"type":"VEC3","min":[-0,-23,-109],"max":[179,102,83]},{"bufferView":0,"byteOffset":94608,"componentType":5122,"count":1314,"type":"VEC3","min":[-179,-23,-109],"max":[0,102,83]},{"bufferView":0,"byteOffset":105120,"componentType":5122,"count":1314,"type":"VEC3","min":[-8,-11,-194],"max":[104,116,47]},{"bufferView":0,"byteOffset":115632,"componentType":5122,"count":1314,"type":"VEC3","min":[-104,-11,-194],"max":[8,116,47]},{"bufferView":5,"byteOffset":73584,"componentType":5120,"count":1314,"type":"VEC3","min":[-10,-78,-65],"max":[43,6,26]},{"bufferView":5,"byteOffset":78840,"componentType":5120,"count":1314,"type":"VEC3","min":[-43,-78,-65],"max":[10,6,26]},{"bufferView":0,"byteOffset":126144,"componentType":5122,"count":1314,"type":"VEC3","min":[-5,-7,-131],"max":[70,84,21]},{"bufferView":0,"byteOffset":136656,"componentType":5122,"count":1314,"type":"VEC3","min":[-70,-7,-131],"max":[5,84,21]},{"bufferView":0,"byteOffset":147168,"componentType":5122,"count":1314,"type":"VEC3","min":[-3,-86,-167],"max":[101,15,2]},{"bufferView":0,"byteOffset":157680,"componentType":5122,"count":1314,"type":"VEC3","min":[-101,-86,-167],"max":[3,15,2]},{"bufferView":5,"byteOffset":84096,"componentType":5120,"count":1314,"type":"VEC3","min":[-39,-2,-91],"max":[39,126,63]},{"bufferView":0,"byteOffset":168192,"componentType":5122,"count":1314,"type":"VEC3","min":[-24,-128,-127],"max":[24,31,26]},{"bufferView":5,"byteOffset":89352,"componentType":5120,"count":1314,"type":"VEC3","min":[-27,-0,-5],"max":[27,103,66]},{"bufferView":5,"byteOffset":94608,"componentType":5120,"count":1314,"type":"VEC3","min":[-6,-6,-12],"max":[6,70,11]},{"bufferView":5,"byteOffset":99864,"componentType":5120,"count":1314,"type":"VEC3","min":[-12,-5,-26],"max":[52,98,49]},{"bufferView":5,"byteOffset":105120,"componentType":5120,"count":1314,"type":"VEC3","min":[-52,-5,-26],"max":[12,98,49]},{"bufferView":5,"byteOffset":110376,"componentType":5120,"count":1314,"type":"VEC3","min":[-2,-111,-26],"max":[25,0,3]},{"bufferView":5,"byteOffset":115632,"componentType":5120,"count":1314,"type":"VEC3","min":[-25,-111,-26],"max":[2,0,3]},{"bufferView":5,"byteOffset":120888,"componentType":5120,"count":1314,"type":"VEC3","min":[-8,-0,-87],"max":[50,116,12]},{"bufferView":5,"byteOffset":126144,"componentType":5120,"count":1314,"type":"VEC3","min":[-50,-0,-87],"max":[8,116,12]},{"bufferView":5,"byteOffset":131400,"componentType":5120,"count":1314,"type":"VEC3","min":[-70,-125,-1],"max":[5,4,65]},{"bufferView":5,"byteOffset":136656,"componentType":5120,"count":1314,"type":"VEC3","min":[-5,-125,-1],"max":[70,4,65]},{"bufferView":0,"byteOffset":178704,"componentType":5122,"count":1314,"type":"VEC3","min":[-15,-0,-34],"max":[15,168,15]},{"bufferView":0,"byteOffset":189216,"componentType":5122,"count":1314,"type":"VEC3","min":[-1,-0,-60],"max":[23,136,0]},{"bufferView":0,"byteOffset":199728,"componentType":5122,"count":1314,"type":"VEC3","min":[-23,-0,-60],"max":[1,136,0]},{"bufferView":0,"byteOffset":210240,"componentType":5122,"count":1314,"type":"VEC3","min":[-112,-31,-22],"max":[112,45,202]},{"bufferView":5,"byteOffset":141912,"componentType":5120,"count":1314,"type":"VEC3","min":[-33,-23,-24],"max":[18,109,43]},{"bufferView":5,"byteOffset":147168,"componentType":5120,"count":1314,"type":"VEC3","min":[-18,-23,-24],"max":[33,109,43]},{"bufferView":5,"byteOffset":152424,"componentType":5120,"count":1314,"type":"VEC3","min":[-19,-54,-20],"max":[10,72,24]},{"bufferView":5,"byteOffset":157680,"componentType":5120,"count":1314,"type":"VEC3","min":[-10,-54,-20],"max":[19,72,24]},{"bufferView":5,"byteOffset":162936,"componentType":5120,"count":1314,"type":"VEC3","min":[0,-0,0],"max":[0,0,0]},{"bufferView":5,"byteOffset":168192,"componentType":5120,"count":1314,"type":"VEC3","min":[-10,-67,-6],"max":[10,41,77]},{"bufferView":5,"byteOffset":173448,"componentType":5120,"count":1314,"type":"VEC3","min":[-8,-0,-11],"max":[9,34,0]},{"bufferView":5,"byteOffset":178704,"componentType":5120,"count":1314,"type":"VEC3","min":[-8,-0,-11],"max":[9,34,0]},{"bufferView":5,"byteOffset":183960,"componentType":5120,"count":1314,"type":"VEC3","min":[-98,-26,-8],"max":[98,28,40]},{"bufferView":5,"byteOffset":189216,"componentType":5120,"count":1314,"type":"VEC3","min":[-29,0,-1],"max":[29,83,2]},{"bufferView":5,"byteOffset":194472,"componentType":5120,"count":1314,"type":"VEC3","min":[-5,-33,-3],"max":[5,0,0]},{"bufferView":5,"byteOffset":199728,"componentType":5120,"count":1314,"type":"VEC3","min":[-12,-2,-4],"max":[12,41,6]},{"bufferView":5,"byteOffset":204984,"componentType":5120,"count":1314,"type":"VEC3","min":[-17,-51,-32],"max":[17,51,89]},{"bufferView":5,"byteOffset":210240,"componentType":5120,"count":1314,"type":"VEC3","min":[-3,-2,-21],"max":[3,29,0]},{"bufferView":0,"byteOffset":220752,"componentType":5122,"count":1314,"type":"VEC3","min":[-28,-210,-170],"max":[28,0,0]},{"bufferView":0,"byteOffset":231264,"componentType":5122,"count":1314,"type":"VEC3","min":[-28,-165,-176],"max":[28,0,0]},{"bufferView":5,"byteOffset":215496,"componentType":5120,"count":1314,"type":"VEC3","min":[-18,-11,-1],"max":[18,37,31]},{"bufferView":5,"byteOffset":220752,"componentType":5120,"count":1314,"type":"VEC3","min":[-5,-43,-3],"max":[5,0,3]},{"bufferView":5,"byteOffset":226008,"componentType":5120,"count":1314,"type":"VEC3","min":[-5,-30,-2],"max":[5,0,0]},{"bufferView":5,"byteOffset":231264,"componentType":5120,"count":1314,"type":"VEC3","min":[-11,-2,-1],"max":[11,21,5]},{"bufferView":5,"byteOffset":236520,"componentType":5120,"count":1314,"type":"VEC3","min":[0,0,0],"max":[0,90,0]},{"bufferView":0,"byteOffset":241776,"componentType":5122,"count":1314,"type":"VEC3","min":[-142,-10,-61],"max":[142,38,11]},{"bufferView":5,"byteOffset":241776,"componentType":5120,"count":1314,"type":"VEC3","min":[-29,0,-1],"max":[29,83,2]},{"bufferView":5,"byteOffset":247032,"componentType":5120,"count":1314,"type":"VEC3","min":[-5,-0,-0],"max":[5,33,3]},{"bufferView":5,"byteOffset":252288,"componentType":5120,"count":1314,"type":"VEC3","min":[-12,-41,-6],"max":[12,2,4]},{"bufferView":5,"byteOffset":257544,"componentType":5120,"count":1314,"type":"VEC3","min":[-39,-23,-24],"max":[39,110,44]},{"bufferView":5,"byteOffset":262800,"componentType":5120,"count":1314,"type":"VEC3","min":[0,0,0],"max":[0,90,0]},{"bufferView":0,"byteOffset":252288,"componentType":5122,"count":1314,"type":"VEC3","min":[-20,-147,-119],"max":[20,0,0]},{"bufferView":5,"byteOffset":268056,"componentType":5120,"count":1314,"type":"VEC3","min":[0,0,0],"max":[0,0,0]},{"bufferView":5,"byteOffset":273312,"componentType":5120,"count":1314,"type":"VEC3","min":[0,0,0],"max":[0,0,0]},{"bufferView":5,"byteOffset":278568,"componentType":5120,"count":1314,"type":"VEC3","min":[0,0,0],"max":[0,0,0]},{"bufferView":5,"byteOffset":283824,"componentType":5120,"count":1314,"type":"VEC3","min":[0,0,0],"max":[0,0,0]},{"bufferView":5,"byteOffset":289080,"componentType":5120,"count":1314,"type":"VEC3","min":[0,0,0],"max":[0,0,0]},{"bufferView":5,"byteOffset":294336,"componentType":5120,"count":1314,"type":"VEC3","min":[0,0,0],"max":[0,0,0]},{"bufferView":5,"byteOffset":299592,"componentType":5120,"count":1314,"type":"VEC3","min":[0,0,0],"max":[0,0,0]},{"bufferView":5,"byteOffset":304848,"componentType":5120,"count":1314,"type":"VEC3","min":[0,0,0],"max":[0,0,0]},{"bufferView":5,"byteOffset":310104,"componentType":5120,"count":1314,"type":"VEC3","min":[0,0,0],"max":[0,0,0]},{"bufferView":5,"byteOffset":315360,"componentType":5120,"count":1314,"type":"VEC3","min":[0,0,0],"max":[0,0,0]},{"bufferView":6,"byteOffset":0,"componentType":5123,"count":7608,"type":"SCALAR"},{"bufferView":0,"byteOffset":262800,"componentType":5123,"count":616,"type":"VEC3","min":[404,1360,1080],"max":[11321,15023,4657]},{"bufferView":1,"byteOffset":5256,"componentType":5120,"count":616,"type":"VEC3","normalized":true},{"bufferView":2,"byteOffset":5256,"componentType":5123,"count":616,"type":"VEC2","normalized":true},{"bufferView":3,"byteOffset":5256,"componentType":5121,"count":616,"type":"VEC4"},{"bufferView":4,"byteOffset":5256,"componentType":5121,"count":616,"type":"VEC4","normalized":true},{"bufferView":5,"byteOffset":320616,"componentType":5120,"count":616,"type":"VEC3","min":[0,0,0],"max":[0,0,0]},{"bufferView":5,"byteOffset":323080,"componentType":5120,"count":616,"type":"VEC3","min":[0,0,0],"max":[0,0,0]},{"bufferView":5,"byteOffset":325544,"componentType":5120,"count":616,"type":"VEC3","min":[0,0,0],"max":[0,0,0]},{"bufferView":5,"byteOffset":328008,"componentType":5120,"count":616,"type":"VEC3","min":[0,0,0],"max":[0,0,0]},{"bufferView":5,"byteOffset":330472,"componentType":5120,"count":616,"type":"VEC3","min":[0,0,0],"max":[0,0,0]},{"bufferView":5,"byteOffset":332936,"componentType":5120,"count":616,"type":"VEC3","min":[0,0,0],"max":[0,0,0]},{"bufferView":5,"byteOffset":335400,"componentType":5120,"count":616,"type":"VEC3","min":[0,0,0],"max":[0,0,0]},{"bufferView":5,"byteOffset":337864,"componentType":5120,"count":616,"type":"VEC3","min":[0,0,0],"max":[0,0,0]},{"bufferView":5,"byteOffset":340328,"componentType":5120,"count":616,"type":"VEC3","min":[0,0,0],"max":[0,0,0]},{"bufferView":5,"byteOffset":342792,"componentType":5120,"count":616,"type":"VEC3","min":[0,0,0],"max":[0,0,0]},{"bufferView":5,"byteOffset":345256,"componentType":5120,"count":616,"type":"VEC3","min":[0,0,0],"max":[0,0,0]},{"bufferView":5,"byteOffset":347720,"componentType":5120,"count":616,"type":"VEC3","min":[0,0,0],"max":[0,0,0]},{"bufferView":5,"byteOffset":350184,"componentType":5120,"count":616,"type":"VEC3","min":[0,0,0],"max":[0,0,0]},{"bufferView":5,"byteOffset":352648,"componentType":5120,"count":616,"type":"VEC3","min":[0,0,0],"max":[0,0,0]},{"bufferView":5,"byteOffset":355112,"componentType":5120,"count":616,"type":"VEC3","min":[-22,-19,0],"max":[22,8,124]},{"bufferView":5,"byteOffset":357576,"componentType":5120,"count":616,"type":"VEC3","min":[0,-6,-4],"max":[116,18,79]},{"bufferView":5,"byteOffset":360040,"componentType":5120,"count":616,"type":"VEC3","min":[-116,-6,-4],"max":[0,18,79]},{"bufferView":0,"byteOffset":267728,"componentType":5122,"count":616,"type":"VEC3","min":[-23,-338,-305],"max":[23,0,1]},{"bufferView":5,"byteOffset":362504,"componentType":5120,"count":616,"type":"VEC3","min":[-7,0,0],"max":[7,14,18]},{"bufferView":5,"byteOffset":364968,"componentType":5120,"count":616,"type":"VEC3","min":[-7,0,0],"max":[7,40,57]},{"bufferView":5,"byteOffset":367432,"componentType":5120,"count":616,"type":"VEC3","min":[-4,0,0],"max":[4,8,16]},{"bufferView":5,"byteOffset":369896,"componentType":5120,"count":616,"type":"VEC3","min":[0,-16,-15],"max":[17,16,53]},{"bufferView":5,"byteOffset":372360,"componentType":5120,"count":616,"type":"VEC3","min":[-17,-16,-15],"max":[0,16,53]},{"bufferView":5,"byteOffset":374824,"componentType":5120,"count":616,"type":"VEC3","min":[-0,-0,-6],"max":[8,14,15]},{"bufferView":5,"byteOffset":377288,"componentType":5120,"count":616,"type":"VEC3","min":[-8,-0,-6],"max":[0,14,15]},{"bufferView":5,"byteOffset":379752,"componentType":5120,"count":616,"type":"VEC3","min":[-8,-4,0],"max":[1,5,25]},{"bufferView":5,"byteOffset":382216,"componentType":5120,"count":616,"type":"VEC3","min":[-1,-4,0],"max":[8,5,25]},{"bufferView":5,"byteOffset":384680,"componentType":5120,"count":616,"type":"VEC3","min":[-0,-0,-0],"max":[1,1,0]},{"bufferView":5,"byteOffset":387144,"componentType":5120,"count":616,"type":"VEC3","min":[-1,-0,-0],"max":[0,1,0]},{"bufferView":5,"byteOffset":389608,"componentType":5120,"count":616,"type":"VEC3","min":[-2,-39,-68],"max":[75,12,0]},{"bufferView":5,"byteOffset":392072,"componentType":5120,"count":616,"type":"VEC3","min":[-75,-39,-68],"max":[2,12,0]},{"bufferView":5,"byteOffset":394536,"componentType":5120,"count":616,"type":"VEC3","min":[0,0,0],"max":[0,0,0]},{"bufferView":5,"byteOffset":397000,"componentType":5120,"count":616,"type":"VEC3","min":[-0,0,0],"max":[0,0,0]},{"bufferView":5,"byteOffset":399464,"componentType":5120,"count":616,"type":"VEC3","min":[-5,0,-0],"max":[5,12,2]},{"bufferView":5,"byteOffset":401928,"componentType":5120,"count":616,"type":"VEC3","min":[-1,0,-0],"max":[1,2,0]},{"bufferView":5,"byteOffset":404392,"componentType":5120,"count":616,"type":"VEC3","min":[0,0,0],"max":[8,42,27]},{"bufferView":5,"byteOffset":406856,"componentType":5120,"count":616,"type":"VEC3","min":[-8,0,0],"max":[0,42,27]},{"bufferView":5,"byteOffset":409320,"componentType":5120,"count":616,"type":"VEC3","min":[-0,-8,-1],"max":[1,0,0]},{"bufferView":5,"byteOffset":411784,"componentType":5120,"count":616,"type":"VEC3","min":[-1,-8,-1],"max":[0,0,0]},{"bufferView":5,"byteOffset":414248,"componentType":5120,"count":616,"type":"VEC3","min":[0,0,0],"max":[0,0,0]},{"bufferView":5,"byteOffset":416712,"componentType":5120,"count":616,"type":"VEC3","min":[0,0,0],"max":[0,0,0]},{"bufferView":5,"byteOffset":419176,"componentType":5120,"count":616,"type":"VEC3","min":[-15,-16,-0],"max":[0,2,19]},{"bufferView":5,"byteOffset":421640,"componentType":5120,"count":616,"type":"VEC3","min":[-0,-16,-0],"max":[15,2,19]},{"bufferView":5,"byteOffset":424104,"componentType":5120,"count":616,"type":"VEC3","min":[-0,-0,-2],"max":[0,12,0]},{"bufferView":5,"byteOffset":426568,"componentType":5120,"count":616,"type":"VEC3","min":[-0,-0,-11],"max":[3,14,0]},{"bufferView":5,"byteOffset":429032,"componentType":5120,"count":616,"type":"VEC3","min":[-3,-0,-11],"max":[0,14,0]},{"bufferView":5,"byteOffset":431496,"componentType":5120,"count":616,"type":"VEC3","min":[-12,0,0],"max":[11,5,54]},{"bufferView":5,"byteOffset":433960,"componentType":5120,"count":616,"type":"VEC3","min":[-11,-11,0],"max":[5,20,20]},{"bufferView":5,"byteOffset":436424,"componentType":5120,"count":616,"type":"VEC3","min":[-5,-11,0],"max":[11,20,20]},{"bufferView":5,"byteOffset":438888,"componentType":5120,"count":616,"type":"VEC3","min":[-0,-0,-0],"max":[0,0,0]},{"bufferView":5,"byteOffset":441352,"componentType":5120,"count":616,"type":"VEC3","min":[-0,-0,-0],"max":[0,0,0]},{"bufferView":5,"byteOffset":443816,"componentType":5120,"count":616,"type":"VEC3","min":[0,0,0],"max":[0,0,0]},{"bufferView":5,"byteOffset":446280,"componentType":5120,"count":616,"type":"VEC3","min":[0,0,0],"max":[0,0,0]},{"bufferView":5,"byteOffset":448744,"componentType":5120,"count":616,"type":"VEC3","min":[0,0,0],"max":[0,0,0]},{"bufferView":5,"byteOffset":451208,"componentType":5120,"count":616,"type":"VEC3","min":[0,0,0],"max":[0,0,0]},{"bufferView":5,"byteOffset":453672,"componentType":5120,"count":616,"type":"VEC3","min":[-4,-1,0],"max":[4,0,1]},{"bufferView":5,"byteOffset":456136,"componentType":5120,"count":616,"type":"VEC3","min":[-6,0,0],"max":[6,13,0]},{"bufferView":5,"byteOffset":458600,"componentType":5120,"count":616,"type":"VEC3","min":[0,0,0],"max":[0,0,0]},{"bufferView":5,"byteOffset":461064,"componentType":5120,"count":616,"type":"VEC3","min":[0,0,0],"max":[0,0,0]},{"bufferView":5,"byteOffset":463528,"componentType":5120,"count":616,"type":"VEC3","min":[0,0,0],"max":[0,0,0]},{"bufferView":5,"byteOffset":465992,"componentType":5120,"count":616,"type":"VEC3","min":[-1,0,-2],"max":[1,1,0]},{"bufferView":5,"byteOffset":468456,"componentType":5120,"count":616,"type":"VEC3","min":[-1,-0,-7],"max":[1,1,0]},{"bufferView":0,"byteOffset":272656,"componentType":5122,"count":616,"type":"VEC3","min":[-28,-158,-165],"max":[28,1,0]},{"bufferView":5,"byteOffset":470920,"componentType":5120,"count":616,"type":"VEC3","min":[0,0,0],"max":[0,0,0]},{"bufferView":5,"byteOffset":473384,"componentType":5120,"count":616,"type":"VEC3","min":[-0,-0,-0],"max":[0,0,0]},{"bufferView":5,"byteOffset":475848,"componentType":5120,"count":616,"type":"VEC3","min":[0,0,0],"max":[0,0,0]},{"bufferView":5,"byteOffset":478312,"componentType":5120,"count":616,"type":"VEC3","min":[0,0,0],"max":[0,0,0]},{"bufferView":5,"byteOffset":480776,"componentType":5120,"count":616,"type":"VEC3","min":[0,0,0],"max":[0,0,0]},{"bufferView":5,"byteOffset":483240,"componentType":5120,"count":616,"type":"VEC3","min":[-73,-7,-1],"max":[73,3,0]},{"bufferView":5,"byteOffset":485704,"componentType":5120,"count":616,"type":"VEC3","min":[-6,0,0],"max":[6,13,0]},{"bufferView":5,"byteOffset":488168,"componentType":5120,"count":616,"type":"VEC3","min":[0,0,0],"max":[0,0,0]},{"bufferView":5,"byteOffset":490632,"componentType":5120,"count":616,"type":"VEC3","min":[0,0,0],"max":[0,0,0]},{"bufferView":5,"byteOffset":493096,"componentType":5120,"count":616,"type":"VEC3","min":[-11,-11,-0],"max":[11,20,20]},{"bufferView":5,"byteOffset":495560,"componentType":5120,"count":616,"type":"VEC3","min":[0,0,0],"max":[0,0,0]},{"bufferView":5,"byteOffset":498024,"componentType":5120,"count":616,"type":"VEC3","min":[-1,-0,-5],"max":[1,1,0]},{"bufferView":5,"byteOffset":500488,"componentType":5120,"count":616,"type":"VEC3","min":[0,0,0],"max":[0,0,0]},{"bufferView":5,"byteOffset":502952,"componentType":5120,"count":616,"type":"VEC3","min":[0,0,0],"max":[0,0,0]},{"bufferView":5,"byteOffset":505416,"componentType":5120,"count":616,"type":"VEC3","min":[0,0,0],"max":[0,0,0]},{"bufferView":5,"byteOffset":507880,"componentType":5120,"count":616,"type":"VEC3","min":[0,0,0],"max":[0,0,0]},{"bufferView":5,"byteOffset":510344,"componentType":5120,"count":616,"type":"VEC3","min":[0,0,0],"max":[0,0,0]},{"bufferView":5,"byteOffset":512808,"componentType":5120,"count":616,"type":"VEC3","min":[0,0,0],"max":[0,0,0]},{"bufferView":5,"byteOffset":515272,"componentType":5120,"count":616,"type":"VEC3","min":[0,0,0],"max":[0,0,0]},{"bufferView":5,"byteOffset":517736,"componentType":5120,"count":616,"type":"VEC3","min":[0,0,0],"max":[0,0,0]},{"bufferView":5,"byteOffset":520200,"componentType":5120,"count":616,"type":"VEC3","min":[0,0,0],"max":[0,0,0]},{"bufferView":5,"byteOffset":522664,"componentType":5120,"count":616,"type":"VEC3","min":[0,0,0],"max":[0,0,0]},{"bufferView":6,"byteOffset":15216,"componentType":5123,"count":3360,"type":"SCALAR"},{"bufferView":0,"byteOffset":277584,"componentType":5123,"count":120,"type":"VEC3","min":[5409,10537,2952],"max":[6315,11209,4379]},{"bufferView":1,"byteOffset":7720,"componentType":5120,"count":120,"type":"VEC3","normalized":true},{"bufferView":2,"byteOffset":7720,"componentType":5123,"count":120,"type":"VEC2","normalized":true},{"bufferView":3,"byteOffset":7720,"componentType":5121,"count":120,"type":"VEC4"},{"bufferView":4,"byteOffset":7720,"componentType":5121,"count":120,"type":"VEC4","normalized":true},{"bufferView":5,"byteOffset":525128,"componentType":5120,"count":120,"type":"VEC3","min":[0,0,0],"max":[0,0,0]},{"bufferView":5,"byteOffset":525608,"componentType":5120,"count":120,"type":"VEC3","min":[0,0,0],"max":[0,0,0]},{"bufferView":5,"byteOffset":526088,"componentType":5120,"count":120,"type":"VEC3","min":[0,0,0],"max":[0,0,0]},{"bufferView":5,"byteOffset":526568,"componentType":5120,"count":120,"type":"VEC3","min":[0,0,0],"max":[0,0,0]},{"bufferView":5,"byteOffset":527048,"componentType":5120,"count":120,"type":"VEC3","min":[0,0,0],"max":[0,0,0]},{"bufferView":5,"byteOffset":527528,"componentType":5120,"count":120,"type":"VEC3","min":[0,0,0],"max":[0,0,0]},{"bufferView":5,"byteOffset":528008,"componentType":5120,"count":120,"type":"VEC3","min":[0,0,0],"max":[0,0,0]},{"bufferView":5,"byteOffset":528488,"componentType":5120,"count":120,"type":"VEC3","min":[0,0,0],"max":[0,0,0]},{"bufferView":5,"byteOffset":528968,"componentType":5120,"count":120,"type":"VEC3","min":[0,0,0],"max":[0,0,0]},{"bufferView":5,"byteOffset":529448,"componentType":5120,"count":120,"type":"VEC3","min":[0,0,0],"max":[0,0,0]},{"bufferView":5,"byteOffset":529928,"componentType":5120,"count":120,"type":"VEC3","min":[0,0,0],"max":[0,0,0]},{"bufferView":5,"byteOffset":530408,"componentType":5120,"count":120,"type":"VEC3","min":[0,0,0],"max":[0,0,0]},{"bufferView":5,"byteOffset":530888,"componentType":5120,"count":120,"type":"VEC3","min":[0,0,0],"max":[0,0,0]},{"bufferView":5,"byteOffset":531368,"componentType":5120,"count":120,"type":"VEC3","min":[0,0,0],"max":[0,0,0]},{"bufferView":5,"byteOffset":531848,"componentType":5120,"count":120,"type":"VEC3","min":[-15,-0,-1],"max":[15,7,101]},{"bufferView":5,"byteOffset":532328,"componentType":5120,"count":120,"type":"VEC3","min":[0,0,-28],"max":[124,25,21]},{"bufferView":5,"byteOffset":532808,"componentType":5120,"count":120,"type":"VEC3","min":[-124,0,-28],"max":[0,25,21]},{"bufferView":0,"byteOffset":278544,"componentType":5122,"count":120,"type":"VEC3","min":[-55,-554,-299],"max":[55,9,0]},{"bufferView":0,"byteOffset":279504,"componentType":5122,"count":120,"type":"VEC3","min":[-28,-212,-67],"max":[28,356,166]},{"bufferView":0,"byteOffset":280464,"componentType":5122,"count":120,"type":"VEC3","min":[-114,-131,0],"max":[114,66,167]},{"bufferView":0,"byteOffset":281424,"componentType":5122,"count":120,"type":"VEC3","min":[-70,-2,-0],"max":[70,16,151]},{"bufferView":0,"byteOffset":282384,"componentType":5122,"count":120,"type":"VEC3","min":[0,-10,-107],"max":[179,82,79]},{"bufferView":0,"byteOffset":283344,"componentType":5122,"count":120,"type":"VEC3","min":[-179,-10,-107],"max":[0,82,79]},{"bufferView":0,"byteOffset":284304,"componentType":5122,"count":120,"type":"VEC3","min":[-40,-39,-194],"max":[92,98,1]},{"bufferView":0,"byteOffset":285264,"componentType":5122,"count":120,"type":"VEC3","min":[-92,-39,-194],"max":[40,98,1]},{"bufferView":5,"byteOffset":533288,"componentType":5120,"count":120,"type":"VEC3","min":[-3,-69,-45],"max":[31,0,0]},{"bufferView":5,"byteOffset":533768,"componentType":5120,"count":120,"type":"VEC3","min":[-31,-69,-45],"max":[3,0,0]},{"bufferView":5,"byteOffset":534248,"componentType":5120,"count":120,"type":"VEC3","min":[-5,-0,-117],"max":[70,32,0]},{"bufferView":5,"byteOffset":534728,"componentType":5120,"count":120,"type":"VEC3","min":[-70,-0,-117],"max":[5,32,0]},{"bufferView":0,"byteOffset":286224,"componentType":5122,"count":120,"type":"VEC3","min":[-0,-81,-158],"max":[84,0,0]},{"bufferView":0,"byteOffset":287184,"componentType":5122,"count":120,"type":"VEC3","min":[-84,-81,-158],"max":[0,0,0]},{"bufferView":5,"byteOffset":535208,"componentType":5120,"count":120,"type":"VEC3","min":[-31,0,-86],"max":[31,40,0]},{"bufferView":5,"byteOffset":535688,"componentType":5120,"count":120,"type":"VEC3","min":[-6,-70,-125],"max":[6,18,0]},{"bufferView":5,"byteOffset":536168,"componentType":5120,"count":120,"type":"VEC3","min":[-19,0,-2],"max":[19,81,66]},{"bufferView":5,"byteOffset":536648,"componentType":5120,"count":120,"type":"VEC3","min":[-5,-0,-6],"max":[5,70,6]},{"bufferView":5,"byteOffset":537128,"componentType":5120,"count":120,"type":"VEC3","min":[-9,-25,-21],"max":[42,33,12]},{"bufferView":5,"byteOffset":537608,"componentType":5120,"count":120,"type":"VEC3","min":[-42,-25,-21],"max":[9,33,12]},{"bufferView":5,"byteOffset":538088,"componentType":5120,"count":120,"type":"VEC3","min":[-2,-102,-16],"max":[2,0,1]},{"bufferView":5,"byteOffset":538568,"componentType":5120,"count":120,"type":"VEC3","min":[-2,-102,-16],"max":[2,0,1]},{"bufferView":5,"byteOffset":539048,"componentType":5120,"count":120,"type":"VEC3","min":[-8,0,-87],"max":[41,116,0]},{"bufferView":5,"byteOffset":539528,"componentType":5120,"count":120,"type":"VEC3","min":[-41,0,-87],"max":[8,116,0]},{"bufferView":5,"byteOffset":540008,"componentType":5120,"count":120,"type":"VEC3","min":[0,0,0],"max":[0,0,0]},{"bufferView":5,"byteOffset":540488,"componentType":5120,"count":120,"type":"VEC3","min":[0,0,0],"max":[0,0,0]},{"bufferView":5,"byteOffset":540968,"componentType":5120,"count":120,"type":"VEC3","min":[0,0,0],"max":[0,0,0]},{"bufferView":5,"byteOffset":541448,"componentType":5120,"count":120,"type":"VEC3","min":[0,0,0],"max":[0,0,0]},{"bufferView":5,"byteOffset":541928,"componentType":5120,"count":120,"type":"VEC3","min":[0,0,0],"max":[0,0,0]},{"bufferView":5,"byteOffset":542408,"componentType":5120,"count":120,"type":"VEC3","min":[-67,-18,-0],"max":[68,0,121]},{"bufferView":5,"byteOffset":542888,"componentType":5120,"count":120,"type":"VEC3","min":[-0,-0,-1],"max":[0,0,0]},{"bufferView":5,"byteOffset":543368,"componentType":5120,"count":120,"type":"VEC3","min":[0,-0,-1],"max":[0,0,0]},{"bufferView":5,"byteOffset":543848,"componentType":5120,"count":120,"type":"VEC3","min":[-0,0,-0],"max":[0,0,0]},{"bufferView":5,"byteOffset":544328,"componentType":5120,"count":120,"type":"VEC3","min":[-0,0,-0],"max":[0,0,0]},{"bufferView":5,"byteOffset":544808,"componentType":5120,"count":120,"type":"VEC3","min":[0,0,0],"max":[0,0,0]},{"bufferView":5,"byteOffset":545288,"componentType":5120,"count":120,"type":"VEC3","min":[-9,-10,-0],"max":[9,3,70]},{"bufferView":5,"byteOffset":545768,"componentType":5120,"count":120,"type":"VEC3","min":[-1,-0,-1],"max":[0,1,0]},{"bufferView":5,"byteOffset":546248,"componentType":5120,"count":120,"type":"VEC3","min":[-1,-0,-1],"max":[0,1,0]},{"bufferView":5,"byteOffset":546728,"componentType":5120,"count":120,"type":"VEC3","min":[-72,-11,0],"max":[72,0,36]},{"bufferView":5,"byteOffset":547208,"componentType":5120,"count":120,"type":"VEC3","min":[-13,0,-1],"max":[13,49,0]},{"bufferView":5,"byteOffset":547688,"componentType":5120,"count":120,"type":"VEC3","min":[-0,-0,0],"max":[0,0,0]},{"bufferView":5,"byteOffset":548168,"componentType":5120,"count":120,"type":"VEC3","min":[-0,0,-0],"max":[0,0,0]},{"bufferView":5,"byteOffset":548648,"componentType":5120,"count":120,"type":"VEC3","min":[-5,-7,0],"max":[5,7,61]},{"bufferView":5,"byteOffset":549128,"componentType":5120,"count":120,"type":"VEC3","min":[-1,-0,-20],"max":[1,24,0]},{"bufferView":0,"byteOffset":288144,"componentType":5122,"count":120,"type":"VEC3","min":[-25,-190,-106],"max":[25,29,0]},{"bufferView":5,"byteOffset":549608,"componentType":5120,"count":120,"type":"VEC3","min":[-8,-13,-60],"max":[8,29,0]},{"bufferView":5,"byteOffset":550088,"componentType":5120,"count":120,"type":"VEC3","min":[-17,-11,-0],"max":[17,32,18]},{"bufferView":5,"byteOffset":550568,"componentType":5120,"count":120,"type":"VEC3","min":[-3,-39,-1],"max":[2,0,1]},{"bufferView":5,"byteOffset":551048,"componentType":5120,"count":120,"type":"VEC3","min":[-0,-0,0],"max":[0,0,0]},{"bufferView":5,"byteOffset":551528,"componentType":5120,"count":120,"type":"VEC3","min":[-0,0,-0],"max":[0,0,0]},{"bufferView":5,"byteOffset":552008,"componentType":5120,"count":120,"type":"VEC3","min":[0,0,0],"max":[0,90,0]},{"bufferView":5,"byteOffset":552488,"componentType":5120,"count":120,"type":"VEC3","min":[-108,-0,-53],"max":[108,17,0]},{"bufferView":5,"byteOffset":552968,"componentType":5120,"count":120,"type":"VEC3","min":[-13,0,-1],"max":[13,49,0]},{"bufferView":5,"byteOffset":553448,"componentType":5120,"count":120,"type":"VEC3","min":[-0,0,0],"max":[0,0,0]},{"bufferView":5,"byteOffset":553928,"componentType":5120,"count":120,"type":"VEC3","min":[-0,-0,-0],"max":[0,0,0]},{"bufferView":5,"byteOffset":554408,"componentType":5120,"count":120,"type":"VEC3","min":[-0,-0,-1],"max":[0,0,0]},{"bufferView":5,"byteOffset":554888,"componentType":5120,"count":120,"type":"VEC3","min":[0,0,0],"max":[0,90,0]},{"bufferView":0,"byteOffset":289104,"componentType":5122,"count":120,"type":"VEC3","min":[-17,-133,-74],"max":[17,20,0]},{"bufferView":5,"byteOffset":555368,"componentType":5120,"count":120,"type":"VEC3","min":[0,0,0],"max":[0,0,0]},{"bufferView":5,"byteOffset":555848,"componentType":5120,"count":120,"type":"VEC3","min":[0,0,0],"max":[0,0,0]},{"bufferView":5,"byteOffset":556328,"componentType":5120,"count":120,"type":"VEC3","min":[0,0,0],"max":[0,0,0]},{"bufferView":5,"byteOffset":556808,"componentType":5120,"count":120,"type":"VEC3","min":[0,0,0],"max":[0,0,0]},{"bufferView":5,"byteOffset":557288,"componentType":5120,"count":120,"type":"VEC3","min":[0,0,0],"max":[0,0,0]},{"bufferView":5,"byteOffset":557768,"componentType":5120,"count":120,"type":"VEC3","min":[0,0,0],"max":[0,0,0]},{"bufferView":5,"byteOffset":558248,"componentType":5120,"count":120,"type":"VEC3","min":[0,0,0],"max":[0,0,0]},{"bufferView":5,"byteOffset":558728,"componentType":5120,"count":120,"type":"VEC3","min":[0,0,0],"max":[0,0,0]},{"bufferView":5,"byteOffset":559208,"componentType":5120,"count":120,"type":"VEC3","min":[0,0,0],"max":[0,0,0]},{"bufferView":5,"byteOffset":559688,"componentType":5120,"count":120,"type":"VEC3","min":[0,0,0],"max":[0,0,0]},{"bufferView":6,"byteOffset":21936,"componentType":5123,"count":540,"type":"SCALAR"},{"bufferView":0,"byteOffset":290064,"componentType":5123,"count":3392,"type":"VEC3","min":[5487,10507,3533],"max":[6238,11096,4351]},{"bufferView":1,"byteOffset":8200,"componentType":5120,"count":3392,"type":"VEC3","normalized":true},{"bufferView":2,"byteOffset":8200,"componentType":5123,"count":3392,"type":"VEC2","normalized":true},{"bufferView":3,"byteOffset":8200,"componentType":5121,"count":3392,"type":"VEC4"},{"bufferView":4,"byteOffset":8200,"componentType":5121,"count":3392,"type":"VEC4","normalized":true},{"bufferView":5,"byteOffset":560168,"componentType":5120,"count":3392,"type":"VEC3","min":[0,-0,-0],"max":[0,0,0]},{"bufferView":5,"byteOffset":573736,"componentType":5120,"count":3392,"type":"VEC3","min":[0,-0,-0],"max":[0,0,0]},{"bufferView":5,"byteOffset":587304,"componentType":5120,"count":3392,"type":"VEC3","min":[0,-0,-0],"max":[0,0,0]},{"bufferView":5,"byteOffset":600872,"componentType":5120,"count":3392,"type":"VEC3","min":[0,-0,-0],"max":[0,0,0]},{"bufferView":5,"byteOffset":614440,"componentType":5120,"count":3392,"type":"VEC3","min":[0,-0,-0],"max":[0,0,0]},{"bufferView":5,"byteOffset":628008,"componentType":5120,"count":3392,"type":"VEC3","min":[0,-0,-0],"max":[0,0,0]},{"bufferView":5,"byteOffset":641576,"componentType":5120,"count":3392,"type":"VEC3","min":[0,-0,-0],"max":[0,0,0]},{"bufferView":5,"byteOffset":655144,"componentType":5120,"count":3392,"type":"VEC3","min":[0,-0,-0],"max":[0,0,0]},{"bufferView":5,"byteOffset":668712,"componentType":5120,"count":3392,"type":"VEC3","min":[0,-0,-0],"max":[0,0,0]},{"bufferView":5,"byteOffset":682280,"componentType":5120,"count":3392,"type":"VEC3","min":[0,-0,-0],"max":[0,0,0]},{"bufferView":5,"byteOffset":695848,"componentType":5120,"count":3392,"type":"VEC3","min":[0,-0,-0],"max":[0,0,0]},{"bufferView":5,"byteOffset":709416,"componentType":5120,"count":3392,"type":"VEC3","min":[0,-0,-0],"max":[0,0,0]},{"bufferView":5,"byteOffset":722984,"componentType":5120,"count":3392,"type":"VEC3","min":[0,-0,-0],"max":[0,0,0]},{"bufferView":5,"byteOffset":736552,"componentType":5120,"count":3392,"type":"VEC3","min":[0,-0,-0],"max":[0,0,0]},{"bufferView":5,"byteOffset":750120,"componentType":5120,"count":3392,"type":"VEC3","min":[-0,-0,0],"max":[0,0,76]},{"bufferView":5,"byteOffset":763688,"componentType":5120,"count":3392,"type":"VEC3","min":[0,-0,-0],"max":[94,0,0]},{"bufferView":5,"byteOffset":777256,"componentType":5120,"count":3392,"type":"VEC3","min":[-101,-0,-0],"max":[0,0,0]},{"bufferView":0,"byteOffset":317200,"componentType":5122,"count":3392,"type":"VEC3","min":[-0,-468,-305],"max":[0,0,0]},{"bufferView":5,"byteOffset":790824,"componentType":5120,"count":3392,"type":"VEC3","min":[0,-0,-0],"max":[0,0,0]},{"bufferView":5,"byteOffset":804392,"componentType":5120,"count":3392,"type":"VEC3","min":[0,-0,-0],"max":[0,0,0]},{"bufferView":5,"byteOffset":817960,"componentType":5120,"count":3392,"type":"VEC3","min":[0,-0,-0],"max":[0,0,0]},{"bufferView":5,"byteOffset":831528,"componentType":5120,"count":3392,"type":"VEC3","min":[0,-0,-0],"max":[0,0,0]},{"bufferView":5,"byteOffset":845096,"componentType":5120,"count":3392,"type":"VEC3","min":[0,-0,-0],"max":[0,0,0]},{"bufferView":5,"byteOffset":858664,"componentType":5120,"count":3392,"type":"VEC3","min":[0,-0,-0],"max":[0,0,0]},{"bufferView":5,"byteOffset":872232,"componentType":5120,"count":3392,"type":"VEC3","min":[0,-0,-0],"max":[0,0,0]},{"bufferView":5,"byteOffset":885800,"componentType":5120,"count":3392,"type":"VEC3","min":[0,-0,-0],"max":[0,0,0]},{"bufferView":5,"byteOffset":899368,"componentType":5120,"count":3392,"type":"VEC3","min":[0,-0,-0],"max":[0,0,0]},{"bufferView":5,"byteOffset":912936,"componentType":5120,"count":3392,"type":"VEC3","min":[0,-0,-0],"max":[0,0,0]},{"bufferView":5,"byteOffset":926504,"componentType":5120,"count":3392,"type":"VEC3","min":[0,-0,-0],"max":[0,0,0]},{"bufferView":5,"byteOffset":940072,"componentType":5120,"count":3392,"type":"VEC3","min":[0,-0,-0],"max":[0,0,0]},{"bufferView":5,"byteOffset":953640,"componentType":5120,"count":3392,"type":"VEC3","min":[0,-0,-0],"max":[0,0,0]},{"bufferView":5,"byteOffset":967208,"componentType":5120,"count":3392,"type":"VEC3","min":[0,-0,-0],"max":[0,0,0]},{"bufferView":5,"byteOffset":980776,"componentType":5120,"count":3392,"type":"VEC3","min":[0,-0,-0],"max":[0,0,0]},{"bufferView":5,"byteOffset":994344,"componentType":5120,"count":3392,"type":"VEC3","min":[0,-0,-0],"max":[0,0,0]},{"bufferView":5,"byteOffset":1007912,"componentType":5120,"count":3392,"type":"VEC3","min":[0,-0,-0],"max":[0,0,0]},{"bufferView":5,"byteOffset":1021480,"componentType":5120,"count":3392,"type":"VEC3","min":[0,-0,-0],"max":[0,0,0]},{"bufferView":5,"byteOffset":1035048,"componentType":5120,"count":3392,"type":"VEC3","min":[0,-0,-0],"max":[0,0,0]},{"bufferView":5,"byteOffset":1048616,"componentType":5120,"count":3392,"type":"VEC3","min":[0,-0,-0],"max":[0,0,0]},{"bufferView":5,"byteOffset":1062184,"componentType":5120,"count":3392,"type":"VEC3","min":[0,-0,-0],"max":[0,0,0]},{"bufferView":5,"byteOffset":1075752,"componentType":5120,"count":3392,"type":"VEC3","min":[0,-0,-0],"max":[0,0,0]},{"bufferView":5,"byteOffset":1089320,"componentType":5120,"count":3392,"type":"VEC3","min":[0,-0,-0],"max":[0,0,0]},{"bufferView":5,"byteOffset":1102888,"componentType":5120,"count":3392,"type":"VEC3","min":[0,-0,-0],"max":[0,0,0]},{"bufferView":5,"byteOffset":1116456,"componentType":5120,"count":3392,"type":"VEC3","min":[0,-0,-0],"max":[0,0,0]},{"bufferView":5,"byteOffset":1130024,"componentType":5120,"count":3392,"type":"VEC3","min":[0,-0,-0],"max":[0,0,0]},{"bufferView":5,"byteOffset":1143592,"componentType":5120,"count":3392,"type":"VEC3","min":[0,-0,-0],"max":[0,0,0]},{"bufferView":5,"byteOffset":1157160,"componentType":5120,"count":3392,"type":"VEC3","min":[0,-0,-0],"max":[0,0,0]},{"bufferView":5,"byteOffset":1170728,"componentType":5120,"count":3392,"type":"VEC3","min":[0,-0,-0],"max":[0,0,0]},{"bufferView":5,"byteOffset":1184296,"componentType":5120,"count":3392,"type":"VEC3","min":[0,-0,-0],"max":[0,0,0]},{"bufferView":5,"byteOffset":1197864,"componentType":5120,"count":3392,"type":"VEC3","min":[0,-0,-0],"max":[0,0,0]},{"bufferView":5,"byteOffset":1211432,"componentType":5120,"count":3392,"type":"VEC3","min":[0,-0,-0],"max":[0,0,0]},{"bufferView":5,"byteOffset":1225000,"componentType":5120,"count":3392,"type":"VEC3","min":[0,-0,-0],"max":[0,0,0]},{"bufferView":0,"byteOffset":344336,"componentType":5122,"count":3392,"type":"VEC3","min":[-14,-134,-2],"max":[15,4,476]},{"bufferView":5,"byteOffset":1238568,"componentType":5120,"count":3392,"type":"VEC3","min":[0,0,0],"max":[0,0,0]},{"bufferView":5,"byteOffset":1252136,"componentType":5120,"count":3392,"type":"VEC3","min":[0,0,0],"max":[0,0,0]},{"bufferView":5,"byteOffset":1265704,"componentType":5120,"count":3392,"type":"VEC3","min":[0,0,0],"max":[0,0,0]},{"bufferView":5,"byteOffset":1279272,"componentType":5120,"count":3392,"type":"VEC3","min":[0,0,0],"max":[0,0,0]},{"bufferView":5,"byteOffset":1292840,"componentType":5120,"count":3392,"type":"VEC3","min":[0,0,0],"max":[0,0,0]},{"bufferView":5,"byteOffset":1306408,"componentType":5120,"count":3392,"type":"VEC3","min":[0,0,0],"max":[0,0,0]},{"bufferView":5,"byteOffset":1319976,"componentType":5120,"count":3392,"type":"VEC3","min":[0,0,0],"max":[0,0,0]},{"bufferView":5,"byteOffset":1333544,"componentType":5120,"count":3392,"type":"VEC3","min":[0,0,0],"max":[0,0,0]},{"bufferView":5,"byteOffset":1347112,"componentType":5120,"count":3392,"type":"VEC3","min":[0,0,0],"max":[0,0,0]},{"bufferView":5,"byteOffset":1360680,"componentType":5120,"count":3392,"type":"VEC3","min":[0,0,0],"max":[0,0,0]},{"bufferView":0,"byteOffset":371472,"componentType":5122,"count":3392,"type":"VEC3","min":[0,-165,-143],"max":[0,53,0]},{"bufferView":5,"byteOffset":1374248,"componentType":5120,"count":3392,"type":"VEC3","min":[0,0,0],"max":[0,0,0]},{"bufferView":5,"byteOffset":1387816,"componentType":5120,"count":3392,"type":"VEC3","min":[0,0,0],"max":[0,0,0]},{"bufferView":5,"byteOffset":1401384,"componentType":5120,"count":3392,"type":"VEC3","min":[0,0,0],"max":[0,0,0]},{"bufferView":5,"byteOffset":1414952,"componentType":5120,"count":3392,"type":"VEC3","min":[0,0,0],"max":[0,0,0]},{"bufferView":5,"byteOffset":1428520,"componentType":5120,"count":3392,"type":"VEC3","min":[0,0,0],"max":[0,0,0]},{"bufferView":5,"byteOffset":1442088,"componentType":5120,"count":3392,"type":"VEC3","min":[0,0,0],"max":[0,0,0]},{"bufferView":5,"byteOffset":1455656,"componentType":5120,"count":3392,"type":"VEC3","min":[0,0,0],"max":[0,0,0]},{"bufferView":5,"byteOffset":1469224,"componentType":5120,"count":3392,"type":"VEC3","min":[0,0,0],"max":[0,0,0]},{"bufferView":5,"byteOffset":1482792,"componentType":5120,"count":3392,"type":"VEC3","min":[0,0,0],"max":[0,0,0]},{"bufferView":5,"byteOffset":1496360,"componentType":5120,"count":3392,"type":"VEC3","min":[0,0,0],"max":[0,0,0]},{"bufferView":5,"byteOffset":1509928,"componentType":5120,"count":3392,"type":"VEC3","min":[0,0,0],"max":[0,0,0]},{"bufferView":5,"byteOffset":1523496,"componentType":5120,"count":3392,"type":"VEC3","min":[0,0,0],"max":[0,0,0]},{"bufferView":5,"byteOffset":1537064,"componentType":5120,"count":3392,"type":"VEC3","min":[0,0,0],"max":[0,0,0]},{"bufferView":5,"byteOffset":1550632,"componentType":5120,"count":3392,"type":"VEC3","min":[0,0,0],"max":[0,0,0]},{"bufferView":5,"byteOffset":1564200,"componentType":5120,"count":3392,"type":"VEC3","min":[0,0,0],"max":[0,0,0]},{"bufferView":5,"byteOffset":1577768,"componentType":5120,"count":3392,"type":"VEC3","min":[0,79,0],"max":[0,79,0]},{"bufferView":5,"byteOffset":1591336,"componentType":5120,"count":3392,"type":"VEC3","min":[0,0,-92],"max":[0,0,-92]},{"bufferView":5,"byteOffset":1604904,"componentType":5120,"count":3392,"type":"VEC3","min":[-108,0,-108],"max":[107,0,90]},{"bufferView":0,"byteOffset":398608,"componentType":5122,"count":3392,"type":"VEC3","min":[0,-4,-91],"max":[0,216,74]},{"bufferView":5,"byteOffset":1618472,"componentType":5120,"count":3392,"type":"VEC3","min":[-59,-71,0],"max":[54,71,0]},{"bufferView":5,"byteOffset":1632040,"componentType":5120,"count":3392,"type":"VEC3","min":[-48,0,0],"max":[48,0,0]},{"bufferView":0,"byteOffset":425744,"componentType":5122,"count":3392,"type":"VEC3","min":[-94,-74,-204],"max":[94,74,0]},{"bufferView":6,"byteOffset":23016,"componentType":5123,"count":17358,"type":"SCALAR"},{"bufferView":0,"byteOffset":452880,"componentType":5123,"count":11,"type":"VEC3","min":[5528,10643,4118],"max":[6196,10961,4394]},{"bufferView":1,"byteOffset":21768,"componentType":5120,"count":11,"type":"VEC3","normalized":true},{"bufferView":3,"byteOffset":21768,"componentType":5121,"count":11,"type":"VEC4"},{"bufferView":4,"byteOffset":21768,"componentType":5121,"count":11,"type":"VEC4","normalized":true},{"bufferView":6,"byteOffset":57732,"componentType":5123,"count":36,"type":"SCALAR"},{"bufferView":7,"byteOffset":0,"componentType":5126,"count":150,"type":"MAT4"}],"samplers":[{"magFilter":9729,"minFilter":9987}],"images":[{"name":"IBA_Diffuse","uri":"Brenin_Diffuse.png"},{"name":"MouthBagGradient","uri":"MouthBagGradient.png"},{"name":"MouthDiffuse","uri":"MouthDiffuse.png"},{"name":"Image","uri":"Image.png"},{"name":"MouthNormal","uri":"MouthNormal.png"},{"name":"MouthRoughness","uri":"MouthRoughness.png"}],"textures":[{"sampler":0,"source":0},{"sampler":0,"source":1},{"sampler":0,"source":2},{"sampler":0,"source":3},{"sampler":0,"source":4},{"sampler":0,"source":5}],"materials":[{"name":"Std_Skin_Head","pbrMetallicRoughness":{"baseColorFactor":[0,0,0,1],"baseColorTexture":{"index":0,"extensions":{"KHR_texture_transform":{"offset":[0.334897995,0.210725009],"scale":[5.2844739,5.29165936]}}},"metallicFactor":0},"emissiveTexture":{"index":0,"extensions":{"KHR_texture_transform":{"offset":[0.334897995,0.210725009],"scale":[5.2844739,5.29165936]}}},"emissiveFactor":[1,1,1],"doubleSided":true,"extensions":{"KHR_materials_ior":{"ior":1.45000005},"KHR_materials_specular":{"specularColorFactor":[0,0,0]}}},{"name":"BorderMat","pbrMetallicRoughness":{"baseColorFactor":[0,0,0,1],"baseColorTexture":{"index":0,"extensions":{"KHR_texture_transform":{"offset":[0.0548770018,0.00369501114],"scale":[14.2471972,15.8828192]}}},"metallicFactor":0},"emissiveTexture":{"index":0,"extensions":{"KHR_texture_transform":{"offset":[0.0548770018,0.00369501114],"scale":[14.2471972,15.8828192]}}},"emissiveFactor":[1,1,1],"alphaMode":"BLEND","doubleSided":true,"extensions":{"KHR_materials_ior":{"ior":1.45000005},"KHR_materials_specular":{"specularColorFactor":[0,0,0]}}},{"name":"MouthBagMat","pbrMetallicRoughness":{"baseColorFactor":[0.365146577,0.0699535161,0.0619215332,1],"baseColorTexture":{"index":1,"extensions":{"KHR_texture_transform":{"offset":[1.007357,0.0113450289],"scale":[15.7221746,15.6405392]}}},"metallicFactor":0},"extensions":{"KHR_materials_ior":{"ior":1.45000005},"KHR_materials_specular":{"specularColorFactor":[0,0,0]}}},{"name":"MouthMat","pbrMetallicRoughness":{"baseColorTexture":{"index":2,"extensions":{"KHR_texture_transform":{"offset":[0.0122570004,0.0161479712],"scale":[15.6469746,15.5523119]}}},"metallicFactor":0,"metallicRoughnessTexture":{"index":5,"extensions":{"KHR_texture_transform":{"offset":[0.0122570004,0.0161479712],"scale":[15.6469746,15.5523119]}}}},"normalTexture":{"index":4,"extensions":{"KHR_texture_transform":{"offset":[0.0122570004,0.0161479712],"scale":[15.6469746,15.5523119]}}},"emissiveTexture":{"index":2,"extensions":{"KHR_texture_transform":{"offset":[0.0122570004,0.0161479712],"scale":[15.6469746,15.5523119]}}},"emissiveFactor":[0.400000006,0.368000001,0.320000023],"extensions":{"KHR_materials_ior":{"ior":1.45000005},"KHR_materials_specular":{"specularColorTexture":{"index":3,"extensions":{"KHR_texture_transform":{"offset":[0.0122570004,0.0161479712],"scale":[15.6469746,15.5523119]}}}}}},{"name":"BlurMat","pbrMetallicRoughness":{"metallicFactor":0},"extensions":{"KHR_materials_transmission":{"transmissionFactor":1},"KHR_materials_ior":{"ior":1.01999998}}}],"meshes":[{"primitives":[{"attributes":{"POSITION":0,"NORMAL":1,"TEXCOORD_0":2,"JOINTS_0":3,"WEIGHTS_0":4},"targets":[{"POSITION":5},{"POSITION":6},{"POSITION":7},{"POSITION":8},{"POSITION":9},{"POSITION":10},{"POSITION":11},{"POSITION":12},{"POSITION":13},{"POSITION":14},{"POSITION":15},{"POSITION":16},{"POSITION":17},{"POSITION":18},{"POSITION":19},{"POSITION":20},{"POSITION":21},{"POSITION":22},{"POSITION":23},{"POSITION":24},{"POSITION":25},{"POSITION":26},{"POSITION":27},{"POSITION":28},{"POSITION":29},{"POSITION":30},{"POSITION":31},{"POSITION":32},{"POSITION":33},{"POSITION":34},{"POSITION":35},{"POSITION":36},{"POSITION":37},{"POSITION":38},{"POSITION":39},{"POSITION":40},{"POSITION":41},{"POSITION":42},{"POSITION":43},{"POSITION":44},{"POSITION":45},{"POSITION":46},{"POSITION":47},{"POSITION":48},{"POSITION":49},{"POSITION":50},{"POSITION":51},{"POSITION":52},{"POSITION":53},{"POSITION":54},{"POSITION":55},{"POSITION":56},{"POSITION":57},{"POSITION":58},{"POSITION":59},{"POSITION":60},{"POSITION":61},{"POSITION":62},{"POSITION":63},{"POSITION":64},{"POSITION":65},{"POSITION":66},{"POSITION":67},{"POSITION":68},{"POSITION":69},{"POSITION":70},{"POSITION":71},{"POSITION":72},{"POSITION":73},{"POSITION":74},{"POSITION":75},{"POSITION":76},{"POSITION":77},{"POSITION":78},{"POSITION":79},{"POSITION":80},{"POSITION":81},{"POSITION":82},{"POSITION":83},{"POSITION":84},{"POSITION":85},{"POSITION":86},{"POSITION":87},{"POSITION":88},{"POSITION":89}],"indices":90,"material":0},{"attributes":{"POSITION":91,"NORMAL":92,"TEXCOORD_0":93,"JOINTS_0":94,"WEIGHTS_0":95},"targets":[{"POSITION":96},{"POSITION":97},{"POSITION":98},{"POSITION":99},{"POSITION":100},{"POSITION":101},{"POSITION":102},{"POSITION":103},{"POSITION":104},{"POSITION":105},{"POSITION":106},{"POSITION":107},{"POSITION":108},{"POSITION":109},{"POSITION":110},{"POSITION":111},{"POSITION":112},{"POSITION":113},{"POSITION":114},{"POSITION":115},{"POSITION":116},{"POSITION":117},{"POSITION":118},{"POSITION":119},{"POSITION":120},{"POSITION":121},{"POSITION":122},{"POSITION":123},{"POSITION":124},{"POSITION":125},{"POSITION":126},{"POSITION":127},{"POSITION":128},{"POSITION":129},{"POSITION":130},{"POSITION":131},{"POSITION":132},{"POSITION":133},{"POSITION":134},{"POSITION":135},{"POSITION":136},{"POSITION":137},{"POSITION":138},{"POSITION":139},{"POSITION":140},{"POSITION":141},{"POSITION":142},{"POSITION":143},{"POSITION":144},{"POSITION":145},{"POSITION":146},{"POSITION":147},{"POSITION":148},{"POSITION":149},{"POSITION":150},{"POSITION":151},{"POSITION":152},{"POSITION":153},{"POSITION":154},{"POSITION":155},{"POSITION":156},{"POSITION":157},{"POSITION":158},{"POSITION":159},{"POSITION":160},{"POSITION":161},{"POSITION":162},{"POSITION":163},{"POSITION":164},{"POSITION":165},{"POSITION":166},{"POSITION":167},{"POSITION":168},{"POSITION":169},{"POSITION":170},{"POSITION":171},{"POSITION":172},{"POSITION":173},{"POSITION":174},{"POSITION":175},{"POSITION":176},{"POSITION":177},{"POSITION":178},{"POSITION":179},{"POSITION":180}],"indices":181,"material":1},{"attributes":{"POSITION":182,"NORMAL":183,"TEXCOORD_0":184,"JOINTS_0":185,"WEIGHTS_0":186},"targets":[{"POSITION":187},{"POSITION":188},{"POSITION":189},{"POSITION":190},{"POSITION":191},{"POSITION":192},{"POSITION":193},{"POSITION":194},{"POSITION":195},{"POSITION":196},{"POSITION":197},{"POSITION":198},{"POSITION":199},{"POSITION":200},{"POSITION":201},{"POSITION":202},{"POSITION":203},{"POSITION":204},{"POSITION":205},{"POSITION":206},{"POSITION":207},{"POSITION":208},{"POSITION":209},{"POSITION":210},{"POSITION":211},{"POSITION":212},{"POSITION":213},{"POSITION":214},{"POSITION":215},{"POSITION":216},{"POSITION":217},{"POSITION":218},{"POSITION":219},{"POSITION":220},{"POSITION":221},{"POSITION":222},{"POSITION":223},{"POSITION":224},{"POSITION":225},{"POSITION":226},{"POSITION":227},{"POSITION":228},{"POSITION":229},{"POSITION":230},{"POSITION":231},{"POSITION":232},{"POSITION":233},{"POSITION":234},{"POSITION":235},{"POSITION":236},{"POSITION":237},{"POSITION":238},{"POSITION":239},{"POSITION":240},{"POSITION":241},{"POSITION":242},{"POSITION":243},{"POSITION":244},{"POSITION":245},{"POSITION":246},{"POSITION":247},{"POSITION":248},{"POSITION":249},{"POSITION":250},{"POSITION":251},{"POSITION":252},{"POSITION":253},{"POSITION":254},{"POSITION":255},{"POSITION":256},{"POSITION":257},{"POSITION":258},{"POSITION":259},{"POSITION":260},{"POSITION":261},{"POSITION":262},{"POSITION":263},{"POSITION":264},{"POSITION":265},{"POSITION":266},{"POSITION":267},{"POSITION":268},{"POSITION":269},{"POSITION":270},{"POSITION":271}],"indices":272,"material":2},{"attributes":{"POSITION":273,"NORMAL":274,"TEXCOORD_0":275,"JOINTS_0":276,"WEIGHTS_0":277},"targets":[{"POSITION":278},{"POSITION":279},{"POSITION":280},{"POSITION":281},{"POSITION":282},{"POSITION":283},{"POSITION":284},{"POSITION":285},{"POSITION":286},{"POSITION":287},{"POSITION":288},{"POSITION":289},{"POSITION":290},{"POSITION":291},{"POSITION":292},{"POSITION":293},{"POSITION":294},{"POSITION":295},{"POSITION":296},{"POSITION":297},{"POSITION":298},{"POSITION":299},{"POSITION":300},{"POSITION":301},{"POSITION":302},{"POSITION":303},{"POSITION":304},{"POSITION":305},{"POSITION":306},{"POSITION":307},{"POSITION":308},{"POSITION":309},{"POSITION":310},{"POSITION":311},{"POSITION":312},{"POSITION":313},{"POSITION":314},{"POSITION":315},{"POSITION":316},{"POSITION":317},{"POSITION":318},{"POSITION":319},{"POSITION":320},{"POSITION":321},{"POSITION":322},{"POSITION":323},{"POSITION":324},{"POSITION":325},{"POSITION":326},{"POSITION":327},{"POSITION":328},{"POSITION":329},{"POSITION":330},{"POSITION":331},{"POSITION":332},{"POSITION":333},{"POSITION":334},{"POSITION":335},{"POSITION":336},{"POSITION":337},{"POSITION":338},{"POSITION":339},{"POSITION":340},{"POSITION":341},{"POSITION":342},{"POSITION":343},{"POSITION":344},{"POSITION":345},{"POSITION":346},{"POSITION":347},{"POSITION":348},{"POSITION":349},{"POSITION":350},{"POSITION":351},{"POSITION":352},{"POSITION":353},{"POSITION":354},{"POSITION":355},{"POSITION":356},{"POSITION":357},{"POSITION":358},{"POSITION":359},{"POSITION":360},{"POSITION":361},{"POSITION":362}],"indices":363,"material":3}],"weights":[0,0,0,0,0,0,0,0,0,0,0,0,0,0,0,0,0,0,0,0,0,0,0,0,0,0,0,0,0,0,0,0,0,0,0,0,0,0,0,0,0,0,0,0,0,0,0,0,0,0,0,0,0,0,0,0,0,0,0,0,0,0,0,0,0,0,0,0,0,0,0,0,0,0,0,0,0,0,0,0,0,0,0,0,0],"extras":{"targetNames":["eyeBlinkLeft","eyeLookDownLeft","eyeLookInLeft","eyeLookOutLeft","eyeLookUpLeft","eyeSquintLeft","eyeWideLeft","eyeBlinkRight","eyeLookDownRight","eyeLookInRight","eyeLookOutRight","eyeLookUpRight","eyeSquintRight","eyeWideRight","jawForward","jawLeft","jawRight","jawOpen","mouthClose","mouthFunnel","mouthPucker","mouthLeft","mouthRight","mouthSmileLeft","mouthSmileRight","mouthFrownLeft","mouthFrownRight","mouthDimpleLeft","mouthDimpleRight","mouthStretchLeft","mouthStretchRight","mouthRollLower","mouthRollUpper","mouthShrugLower","mouthShrugUpper","mouthPressLeft","mouthPressRight","mouthLowerDownLeft","mouthLowerDownRight","mouthUpperUpLeft","mouthUpperUpRight","browDownLeft","browDownRight","browInnerUp","browOuterUpLeft","browOuterUpRight","cheekPuff","cheekSquintLeft","cheekSquintRight","noseSneerLeft","noseSneerRight","tongueOut","lipsTurn","stickyLips","stickyLips2","lipsNarrow","lipsCornerUp","lipsTopThin","lipsBottomThin","lipsInsideOut","lipsTopUp","lipsBottomDown","lipsJawDown","lipsTopQuarterUp","lipsBottomQuarterDown","lipsTopQuarterThin","lipsBottomQuarterThin","lipsRaise","smileLipsWide","smileLipsCornerUp","smileLipsTopThick","smileLipsBottomThick","smileCheekRaise","smileLipsRaise","smileLipsBottomDown","wmEyeCorner","wmCheek","wmForehead","teethUp","teethBack","teethYaw","teethPitch","teethRoll","teethWidth","teethScale"]}},{"primitives":[{"attributes":{"POSITION":364,"NORMAL":365,"JOINTS_0":366,"WEIGHTS_0":367},"indices":368,"material":4}]}],"skins":[{"name":"Armature","joints":[151,2,150,4,3,6,5,149,148,7,8,9,10,11,12,13,14,15,16,17,18,19,20,21,22,23,24,25,26,27,28,29,30,31,32,33,34,35,36,37,38,39,40,41,42,43,44,45,46,47,48,49,50,51,52,53,54,55,56,57,58,59,60,61,62,63,64,65,66,67,68,69,70,71,72,73,74,75,76,77,78,79,80,81,82,83,84,85,86,87,88,89,146,93,90,91,92,98,94,95,96,97,103,99,100,101,102,107,104,105,106,112,108,109,110,111,117,113,114,115,116,121,118,119,120,126,122,123,124,125,131,127,128,129,130,135,132,133,134,140,136,137,138,139,145,141,142,143,144,147],"inverseBindMatrices":369}],"nodes":[{"mesh":0,"skin":0,"translation":[-0.420018047,0.838332832,-0.21242699],"scale":[7.16483119e-05,7.16483119e-05,7.16483119e-05]},{"mesh":1,"skin":0,"translation":[-0.420018047,0.838332832,-0.21242699],"scale":[7.16483119e-05,7.16483119e-05,7.16483119e-05]},{"name":"MJ_Jnt_ShroudLowerBorder_C","translation":[0,0.94607091,0.0642896295],"rotation":[-0.0301830005,0,0,0.999544382],"scale":[1,0.999999821,0.999999881]},{"name":"Jnt_Clavicle_L_end","translation":[1.11758709e-08,0.244901583,-2.98023224e-08],"rotation":[8.41053094e-09,0.0824396163,8.4105336e-09,0.996596098],"scale":[1,1.00000012,1]},{"name":"Jnt_Clavicle_L","translation":[0.0369290002,0.186854959,-0.000364000909],"rotation":[-0.626309633,-0.352476478,-0.4383955,0.539727747],"children":[3]},{"name":"Jnt_Clavicle_R_end","translation":[-7.4505806e-09,0.244902849,-2.04890966e-08],"rotation":[-3.64781165e-08,0.995708704,1.77713932e-08,0.0925434083],"scale":[0.99999994,1,0.99999994]},{"name":"Jnt_Clavicle_R","translation":[-0.0369290002,0.186857939,-0.000363813713],"rotation":[0.500180602,-0.572949529,0.578175902,0.295399368],"scale":[1,1.00000024,0.99999994],"children":[5]},{"name":"MJ_Jnt_FaceBorder_L_4","translation":[0.0716409758,0.0981449932,0.0359451063],"rotation":[0.034378998,-0.333997846,-0.33399719,0.880743682],"scale":[1,1,0.99999994]},{"name":"MJ_Jnt_FaceBorder_L_5","translation":[0.0677459687,0.0635950416,0.0381160975],"rotation":[0.00808122195,-0.428169519,-0.428168923,0.795786977],"scale":[1,0.99999994,1]},{"name":"MJ_Jnt_FaceBorder_L_6","translation":[0.0578599423,0.0339679606,0.0436410867],"rotation":[-0.0225049593,-0.535999954,-0.535999656,0.651845038],"scale":[0.99999994,0.999999881,0.99999994]},{"name":"MJ_Jnt_FaceBorder_L_7","translation":[0.0423449241,0.01143598,0.0550160669],"rotation":[-0.0594792627,-0.644356966,-0.644356608,0.40751794],"scale":[1,1.00000012,1]},{"name":"MJ_Jnt_FaceBorder_L_8","translation":[0.0256899111,-0.000720977492,0.0631030351],"rotation":[-0.155356288,-0.693653524,-0.693653464,0.116421968],"scale":[1,1.00000024,1]},{"name":"MJ_Jnt_FaceBorder_C_2","translation":[-1.0077877e-07,-0.00657295343,0.0694880038],"rotation":[0.739652276,-5.84179645e-07,4.30675613e-07,0.672989309],"scale":[1,0.99999994,0.99999994]},{"name":"MJ_Jnt_FaceBorder_R_1","translation":[-0.0354020484,0.17203702,0.0682659447],"rotation":[0.172312289,0.117624648,0.117625311,0.970895052],"scale":[1.00000012,1,0.99999994]},{"name":"MJ_Jnt_FaceBorder_R_2","translation":[-0.0585300289,0.156988055,0.0513259172],"rotation":[0.112266414,0.198610336,0.198610947,0.953154683],"scale":[0.99999994,0.999999881,0.99999994]},{"name":"MJ_Jnt_FaceBorder_R_3","translation":[-0.0700580254,0.131511003,0.0405558981],"rotation":[0.0665069297,0.264152527,0.264153093,0.925215364],"scale":[0.99999994,1,1]},{"name":"MJ_Jnt_FaceBorder_R_4","translation":[-0.0716410205,0.0981450304,0.0359449014],"rotation":[0.0343785919,0.333996505,0.333997101,0.880744219],"scale":[0.999999881,0.99999994,0.99999994]},{"name":"MJ_Jnt_FaceBorder_R_5","translation":[-0.0677460283,0.0635950789,0.0381159075],"rotation":[0.00808066316,0.428168446,0.428168893,0.795787632],"scale":[0.99999994,0.99999994,0.99999994]},{"name":"MJ_Jnt_FaceBorder_R_6","translation":[-0.0578600541,0.0339679942,0.043640919],"rotation":[-0.0225054994,0.535999119,0.535999477,0.651845932],"scale":[0.99999994,1,1]},{"name":"MJ_Jnt_FaceBorder_R_7","translation":[-0.0423450731,0.0114360042,0.0550159439],"rotation":[-0.0594799556,0.644356191,0.644356608,0.407519042],"scale":[0.99999994,0.999999881,1]},{"name":"MJ_Jnt_FaceBorder_R_8","translation":[-0.0256900899,-0.000720962882,0.0631029606],"rotation":[-0.155357078,0.693653464,0.693653166,0.116423205]},{"name":"MJ_Jnt_EyeBrow_L_1","translation":[0.0163109042,0.126634002,0.0915370211],"rotation":[0.300854415,-0.0803571567,-0.0803563446,0.946874976],"scale":[1,1,0.99999994]},{"name":"MJ_Jnt_EyeBrow_L_2","translation":[0.0386259183,0.127817035,0.0826180577],"rotation":[0.247103617,-0.178684548,-0.178683758,0.935459137],"scale":[1,1,0.99999994]},{"name":"MJ_Jnt_EyeBrow_L_3","translation":[0.0528729334,0.120974056,0.0701030716],"rotation":[0.190929279,-0.242694646,-0.242693931,0.919643939]},{"name":"MJ_Jnt_EyeBrow_R_1","translation":[-0.0163110942,0.126634017,0.0915369764],"rotation":[0.300854325,0.0803557411,0.0803565234,0.946875155],"scale":[1,1.00000024,1]},{"name":"MJ_Jnt_EyeBrow_R_2","translation":[-0.0386260822,0.12781705,0.082617946],"rotation":[0.247103378,0.178683147,0.178683847,0.935459435],"scale":[1,0.99999994,1]},{"name":"MJ_Jnt_EyeBrow_R_3","translation":[-0.0528730676,0.120974086,0.0701029226],"rotation":[0.190929055,0.242693275,0.242693946,0.919644415],"scale":[1,1,0.99999994]},{"name":"MJ_Jnt_EyeLid_L_1","translation":[0.0168919265,0.104431041,0.0723180249],"rotation":[0.287324846,-0.0998579562,-0.099857159,0.947365522],"scale":[1,1.00000012,0.999999881]},{"name":"MJ_Jnt_EyeLid_L_2","translation":[0.0229539219,0.109721065,0.075378038],"rotation":[0.278466344,-0.127798155,-0.12779738,0.943287849],"scale":[1,0.99999994,1]},{"name":"MJ_Jnt_EyeLid_L_3","translation":[0.0310559217,0.112029076,0.0779730454],"rotation":[0.268447876,-0.166669905,-0.166669145,0.934011936],"scale":[1,0.99999994,1]},{"name":"MJ_Jnt_EyeLid_L_4","translation":[0.0393959247,0.109887004,0.0751620606],"rotation":[0.245723069,-0.209494233,-0.209493458,0.922954381]},{"name":"MJ_Jnt_EyeLid_L_5","translation":[0.0439849347,0.106353991,0.0693930686],"rotation":[0.221236303,-0.235307202,-0.235306501,0.916687429]},{"name":"MJ_Jnt_EyeLid_L_6","translation":[0.0395219252,0.103340983,0.0737390593],"rotation":[0.248589605,-0.222691357,-0.222690672,0.915980697],"scale":[0.99999994,0.999999881,1]},{"name":"MJ_Jnt_EyeLid_L_7","translation":[0.0316229202,0.102509022,0.0766630471],"rotation":[0.277347475,-0.185351908,-0.185351133,0.924320281],"scale":[0.99999994,1,1]},{"name":"MJ_Jnt_EyeLid_L_8","translation":[0.0244089197,0.103160024,0.0749310404],"rotation":[0.285948366,-0.144585863,-0.144585073,0.936174989],"scale":[1,1.00000012,1]},{"name":"MJ_Jnt_EyeLid_R_1","translation":[-0.0168920718,0.104434982,0.0723179802],"rotation":[0.287317246,0.0998524055,0.0998531953,0.947368801]},{"name":"MJ_Jnt_EyeLid_R_2","translation":[-0.0229540784,0.109725013,0.0753779709],"rotation":[0.278459549,0.127791822,0.127792582,0.943291366],"scale":[1.00000012,0.999999881,1]},{"name":"MJ_Jnt_EyeLid_R_3","translation":[-0.0310560782,0.112029091,0.077972956],"rotation":[0.268447697,0.166668504,0.16666925,0.934012234],"scale":[1,1,0.99999994]},{"name":"MJ_Jnt_EyeLid_R_4","translation":[-0.0393960737,0.109887026,0.0751619488],"rotation":[0.245722786,0.209492847,0.209493488,0.922954857],"scale":[1,1,0.99999994]},{"name":"MJ_Jnt_EyeLid_R_5","translation":[-0.0439850688,0.106354021,0.0693929419],"rotation":[0.221236035,0.23530589,0.235306576,0.916687846]},{"name":"MJ_Jnt_EyeLid_R_6","translation":[-0.0395220742,0.103341006,0.0737389475],"rotation":[0.248589337,0.222689986,0.222690701,0.915981114],"scale":[1.00000012,0.99999994,1]},{"name":"MJ_Jnt_EyeLid_R_7","translation":[-0.0316230766,0.102509037,0.0766629577],"rotation":[0.277347267,0.185350507,0.185351253,0.924320579],"scale":[0.99999994,1,1]},{"name":"MJ_Jnt_EyeLid_R_8","translation":[-0.02441708,0.103165045,0.0749319717],"rotation":[0.285928011,0.144621775,0.144622549,0.936169863]},{"name":"MJ_Jnt_Iris_L","translation":[0.0314269215,0.107310057,0.0766570419],"rotation":[0.270764977,-0.175826311,-0.175825581,0.929976821]},{"name":"MJ_Jnt_Iris_R","translation":[-0.0314270779,0.107310072,0.0766569525],"rotation":[0.270764798,0.175824925,0.175825655,0.929977119],"scale":[0.99999994,0.99999994,0.99999994]},{"name":"MJ_Jnt_Nose_C_1","translation":[-9.70260032e-08,0.115436085,0.0912349969],"rotation":[0.328216434,-7.18955278e-07,9.92377025e-08,0.944602549]},{"name":"MJ_Jnt_Nose_C_3","translation":[-1.39873393e-07,0.0793830305,0.114132002],"rotation":[0.463141084,-6.96640882e-07,2.03558272e-07,0.88628459],"scale":[1,0.99999994,0.99999994]},{"name":"Jnt_Head_end","translation":[-1.82356388e-08,0.208570004,0.0544940047],"rotation":[0.12743324,-1.59197867e-07,2.218985e-08,0.991847157]},{"name":"MJ_Jnt_Nose_C_2","translation":[-1.1800087e-07,0.0966280848,0.102211997],"rotation":[0.395614356,-7.0990518e-07,1.50929111e-07,0.918416739]},{"name":"MJ_Jnt_Nose_C_4","translation":[-1.23777809e-07,0.0642910153,0.099808],"rotation":[0.47878772,-6.92921446e-07,2.15881883e-07,0.877930701]},{"name":"MJ_Jnt_Nose_L_1","translation":[0.0170749035,0.0903980806,0.084971033],"rotation":[0.353024542,-0.120232657,-0.120231815,0.920033753],"scale":[0.999999881,1,0.99999994]},{"name":"MJ_Jnt_Nose_L_2","translation":[0.0187198967,0.0736930445,0.0871680304],"rotation":[0.393540829,-0.163018703,-0.163017824,0.889930189],"scale":[1,1.00000012,1]},{"name":"MJ_Jnt_Nose_L_3","translation":[0.0143238902,0.066712983,0.0912490189],"rotation":[0.432900637,-0.1408571,-0.140856221,0.879156351]},{"name":"MJ_Jnt_Nose_R_1","translation":[-0.0170750972,0.0903980881,0.0849709809],"rotation":[0.353024364,0.120231241,0.120232038,0.920033991],"scale":[1,0.99999994,1]},{"name":"MJ_Jnt_Nose_R_2","translation":[-0.0187201016,0.0736930519,0.0871679783],"rotation":[0.393540591,0.163017273,0.163018122,0.889930487],"scale":[1,1.00000012,1.00000012]},{"name":"MJ_Jnt_Nose_R_3","translation":[-0.01432411,0.0667129904,0.0912489817],"rotation":[0.432900459,0.140855759,0.140856594,0.87915659],"scale":[0.99999994,1,1]},{"name":"MJ_Jnt_Cheek_L_1","translation":[0.0453819185,0.0767300054,0.0725540668],"rotation":[0.246027172,-0.325095445,-0.3250947,0.853286028],"scale":[0.99999994,1,1]},{"name":"MJ_Jnt_Cheek_L_2","translation":[0.0452679172,0.0486210547,0.0672120675],"rotation":[0.210018098,-0.445695549,-0.445694953,0.747398078],"scale":[1,0.99999994,1]},{"name":"MJ_Jnt_FaceBorder_C_1","translation":[-6.05731003e-08,0.176460996,0.0778210014],"rotation":[0.206186637,-7.25732434e-07,7.56619123e-09,0.978512704]},{"name":"MJ_Jnt_Cheek_R_1","translation":[-0.0453820825,0.0767300352,0.0725539401],"rotation":[0.246026799,0.325094163,0.325094789,0.853286624]},{"name":"MJ_Jnt_Cheek_R_2","translation":[-0.0452680811,0.0486210808,0.0672119409],"rotation":[0.210017607,0.445694476,0.445695013,0.747398853],"scale":[1,1.00000012,1]},{"name":"MJ_Jnt_Chin_C","translation":[-1.23822929e-07,0.00897098612,0.0887840018],"rotation":[0.670622408,-6.23337314e-07,3.71758546e-07,0.741798878]},{"name":"MJ_Jnt_LipsTopOuter_C","translation":[-1.26930729e-07,0.050035011,0.0991740003],"rotation":[0.524195969,-6.80638664e-07,2.51944357e-07,0.851597667]},{"name":"MJ_Jnt_LipsBottomOuter_C","translation":[-1.27232965e-07,0.0349969976,0.0963810012],"rotation":[0.573887229,-6.64460686e-07,2.91954706e-07,0.818934321]},{"name":"MJ_Jnt_LipsTopOuter_L_1","translation":[0.00684187422,0.0505590513,0.0980980173],"rotation":[0.51272893,-0.0921135992,-0.0921126753,0.848610282],"scale":[1,1,1.00000012]},{"name":"MJ_Jnt_LipsTopOuter_L_2","translation":[0.0163868815,0.0477889851,0.0928670242],"rotation":[0.473892361,-0.222280189,-0.222279236,0.822562754],"scale":[1,1.00000012,1]},{"name":"MJ_Jnt_LipsCornerOuter_L","translation":[0.0235488936,0.0419729985,0.0830610394],"rotation":[0.411997169,-0.334129751,-0.334128976,0.77908504],"scale":[0.999999881,1,1.00000012]},{"name":"MJ_Jnt_LipsBottomOuter_L_1","translation":[0.00658087386,0.0356270149,0.0953860134],"rotation":[0.5562886,-0.126334459,-0.126333445,0.811555624]},{"name":"MJ_Jnt_LipsBottomOuter_L_2","translation":[0.0156598799,0.0379149988,0.0906270221],"rotation":[0.489701748,-0.263864547,-0.263863713,0.787999809],"scale":[0.99999994,0.99999994,0.99999994]},{"name":"MJ_Jnt_FaceBorder_L_1","translation":[0.0354019515,0.172037005,0.068266049],"rotation":[0.172312424,-0.117626093,-0.117625393,0.970894873],"scale":[0.999999881,1,0.99999994]},{"name":"MJ_Jnt_LipsTopOuter_R_1","translation":[-0.00684212567,0.0505590588,0.0980979949],"rotation":[0.51272881,0.0921122506,0.0921131447,0.848610461]},{"name":"MJ_Jnt_LipsTopOuter_R_2","translation":[-0.0163871199,0.0477889925,0.0928669795],"rotation":[0.473892093,0.222278863,0.222279653,0.822563171],"scale":[0.999999881,0.99999994,0.999999881]},{"name":"MJ_Jnt_LipsBottomOuter_R_1","translation":[-0.00658112625,0.0356270187,0.095385991],"rotation":[0.556288421,0.126333132,0.126334026,0.811555803],"scale":[0.99999994,1,1]},{"name":"MJ_Jnt_LipsBottomOuter_R_2","translation":[-0.0156601183,0.0379150063,0.0906269774],"rotation":[0.489701331,0.263863355,0.26386413,0.788000345],"scale":[0.99999994,0.99999994,0.99999994]},{"name":"MJ_Jnt_LipsCornerOuter_R","translation":[-0.023549106,0.0419730097,0.0830609724],"rotation":[0.411996812,0.334128529,0.334129304,0.779085577],"scale":[1.00000012,1,1]},{"name":"MJ_Jnt_LipsTopInner_C","translation":[-1.18723705e-07,0.0434690826,0.0920960009],"rotation":[0.535331547,-6.77273079e-07,2.60858371e-07,0.844642043]},{"name":"MJ_Jnt_LipsBottomInner_C","translation":[-1.18665625e-07,0.043303024,0.0920220017],"rotation":[0.535823941,-6.7712034e-07,2.61253433e-07,0.844329774]},{"name":"MJ_Jnt_LipsTopInner_L_1","translation":[0.00521588232,0.0436049774,0.0912100077],"rotation":[0.527184606,-0.0818806365,-0.0818797126,0.841824055],"scale":[0.99999994,1,1]},{"name":"MJ_Jnt_LipsTopInner_L_2","translation":[0.0131468885,0.0436509922,0.0876610205],"rotation":[0.489765197,-0.198087916,-0.198086992,0.825622678],"scale":[0.99999994,1,1]},{"name":"MJ_Jnt_LipsTopInner_L_3","translation":[0.0182138924,0.0431630649,0.0836150274],"rotation":[0.451746106,-0.265997738,-0.265996873,0.808960021],"scale":[0.99999994,0.999999881,0.99999994]},{"name":"MJ_Jnt_FaceBorder_L_2","translation":[0.0585299693,0.15698801,0.0513260849],"rotation":[0.112266652,-0.198611721,-0.198611021,0.953154385],"scale":[1,1,0.99999994]},{"name":"MJ_Jnt_LipsBottomInner_L_1","translation":[0.00525488192,0.0434950665,0.0913510099],"rotation":[0.527735293,-0.0827040374,-0.0827030912,0.841317892],"scale":[0.99999994,1,0.999999881]},{"name":"MJ_Jnt_LipsBottomInner_L_2","translation":[0.0131118884,0.0435640886,0.087965019],"rotation":[0.490756273,-0.19802013,-0.198019207,0.825066507],"scale":[0.999999881,1,1]},{"name":"MJ_Jnt_LipsBottomInner_L_3","translation":[0.017824892,0.0431280173,0.0835320279],"rotation":[0.45421952,-0.261375666,-0.261374772,0.810586631],"scale":[0.99999994,0.999999881,0.99999994]},{"name":"MJ_Jnt_LipsTopInner_R_1","translation":[-0.00521611795,0.0436049812,0.0912099928],"rotation":[0.527184606,0.0818793178,0.0818802342,0.841824114],"scale":[1,1,0.99999994]},{"name":"MJ_Jnt_LipsTopInner_R_2","translation":[-0.013147112,0.0436509997,0.0876609832],"rotation":[0.489764988,0.19808659,0.198087439,0.825622976]},{"name":"MJ_Jnt_LipsTopInner_R_3","translation":[-0.0182141084,0.043163076,0.0836149752],"rotation":[0.451745778,0.265996486,0.265997291,0.808960497]},{"name":"MJ_Jnt_LipsBottomInner_R_1","translation":[-0.00525511848,0.0434950702,0.091350995],"rotation":[0.527735174,0.082702674,0.0827035829,0.841318011]},{"name":"MJ_Jnt_LipsBottomInner_R_2","translation":[-0.0131121119,0.0435640961,0.0879649818],"rotation":[0.490756035,0.198018819,0.198019654,0.825066864],"scale":[1,0.99999994,1]},{"name":"MJ_Jnt_LipsBottomInner_R_3","translation":[-0.017825108,0.0431280285,0.0835319757],"rotation":[0.454219162,0.261374325,0.261375129,0.810587108]},{"name":"MJ_Jnt_TopCanine_A_L_end","translation":[-0.00128522376,0.00723877875,-0.00215221918],"rotation":[-0.131342113,-0.117080361,0.101375088,0.979165256],"scale":[1,1.00000012,0.99999994]},{"name":"MJ_Jnt_TopCanine_B_L_end","translation":[0.000339868013,0.00827124063,-0.000401749276],"rotation":[-0.023833219,0.0200454909,-0.0209971368,0.9992944],"scale":[1,1,1.00000012]},{"name":"MJ_Jnt_TopCanine_C_L_end","translation":[0.000945308711,0.0066868728,0.00255404273],"rotation":[0.184592471,0.0712315664,-0.053448949,0.978772104],"scale":[1.00000012,0.99999994,1]},{"name":"MJ_Jnt_TopCanine_L","translation":[0.0138035286,0.0313964598,-0.00748884957],"rotation":[0.630414367,0.0566341765,-0.00448333286,0.774177134],"scale":[1,0.99999994,1],"children":[90,91,92]},{"name":"MJ_Jnt_TopIncisors1_A_R_end","translation":[0.00333849527,0.00798717979,-0.00053491845],"rotation":[0.0136072999,0.220889971,-0.19842121,0.95480442]},{"name":"MJ_Jnt_TopIncisors1_B_R_end","translation":[0.000913879601,0.00853736233,-0.000123570309],"rotation":[-0.00398407923,0.060117092,-0.0536281243,0.996741772],"scale":[1,1,0.99999994]},{"name":"MJ_Jnt_TopIncisors1_C_R_end","translation":[-0.00118011143,0.00856151991,0.000142169185],"rotation":[0.0134492544,-0.0762344599,0.067597419,0.994705021],"scale":[0.99999994,1,1]},{"name":"MJ_Jnt_TopIncisors1_D_R_end","translation":[-0.00307225995,0.00813973323,0.000516332802],"rotation":[0.0647533536,-0.193207055,0.169825837,0.964176953],"scale":[1.00000012,1.00000012,1]},{"name":"MJ_Jnt_TopIncisors1_R","translation":[-0.00340045453,0.0369500034,-0.00774851395],"rotation":[0.606162965,-0.0360660292,0.00280719344,0.794517338],"children":[94,95,96,97]},{"name":"MJ_Jnt_TopIncisors2_A_R_end","translation":[0.00205887761,0.00718712667,-0.00197209604],"rotation":[-0.100441784,0.194385022,-0.158565193,0.962799549],"scale":[0.99999994,0.999999881,1]},{"name":"MJ_Jnt_TopIncisors2_B_R_end","translation":[0.000534858555,0.00752361026,-0.000418465235],"rotation":[-0.0260849912,0.045415964,-0.0366618261,0.997954369]},{"name":"MJ_Jnt_TopIncisors2_C_R_end","translation":[-0.000767347403,0.00743234204,0.0007792908],"rotation":[0.0551242195,-0.062737003,0.0478344932,0.995357871],"scale":[1,0.99999994,1]},{"name":"MJ_Jnt_TopIncisors2_D_R_end","translation":[-0.0018265266,0.00701228809,0.00161123334],"rotation":[0.12684229,-0.141656712,0.107658125,0.975835145]},{"name":"MJ_Jnt_TopIncisors2_R","translation":[-0.00891243201,0.0349006206,-0.00735279452],"rotation":[0.601390064,-0.108810686,0.00852792244,0.791465402],"children":[99,100,101,102]},{"name":"MJ_Jnt_TopCanine_A_R_end","translation":[0.00128508499,0.00724016875,-0.00215211604],"rotation":[-0.131314218,0.117056571,-0.101344526,0.979175031],"scale":[0.99999994,0.999999881,0.99999994]},{"name":"MJ_Jnt_TopCanine_B_R_end","translation":[-0.000340202823,0.00827114657,-0.000401608995],"rotation":[-0.0238232706,-0.0200706851,0.0210166611,0.999293745],"scale":[0.99999994,0.99999994,1]},{"name":"MJ_Jnt_TopCanine_C_R_end","translation":[-0.000944882166,0.00668447558,0.00255375728],"rotation":[0.184630916,-0.0712252185,0.0534379557,0.978765965],"scale":[0.99999994,1,0.999999881]},{"name":"MJ_Jnt_TopCanine_R","translation":[-0.0138054723,0.0313956775,-0.00748598389],"rotation":[0.63036114,-0.0565396883,0.00441606436,0.774227798],"children":[104,105,106]},{"name":"MJ_Jnt_BottomIncisors1_A_L_end","translation":[-0.00259301742,0.00834937673,0.000183559576],"rotation":[-0.0265180022,0.242652684,0.147984058,0.958393037],"scale":[0.99999994,1,0.999999881]},{"name":"MJ_Jnt_BottomIncisors1_B_L_end","translation":[-0.000966703286,0.00866323989,-3.93754817e-05],"rotation":[-0.00728631113,0.0905036107,0.055100549,0.994343996],"scale":[1,0.999999881,0.99999994]},{"name":"MJ_Jnt_BottomIncisors1_C_L_end","translation":[0.00114527112,0.00873084459,-0.000150949054],"rotation":[-0.0154838264,-0.106341958,-0.0638757646,0.992155015],"scale":[1,1,0.999999881]},{"name":"MJ_Jnt_BottomIncisors1_D_L_end","translation":[0.00241441978,0.00834209565,6.74938201e-06],"rotation":[-0.0318879969,-0.227558106,-0.136730909,0.963589728],"scale":[0.999999881,1,1]},{"name":"MJ_Jnt_BottomIncisors1_L","translation":[0.00261794031,0.0350061022,0.00726639805],"rotation":[-0.583387375,-0.0307058077,0.0024421839,0.811609745],"children":[108,109,110,111]},{"name":"MJ_Jnt_BottomIncisors2_A_L_end","translation":[-0.00209177099,0.00853725709,0.000806697994],"rotation":[0.0185214374,0.21926403,0.126703605,0.967226207],"scale":[0.999999881,1,0.99999994]},{"name":"MJ_Jnt_BottomIncisors2_B_L_end","translation":[-0.00077043171,0.00894418731,0.000383377104],"rotation":[0.0179542378,0.0776738003,0.0444506966,0.995825589],"scale":[0.99999994,1,0.99999994]},{"name":"MJ_Jnt_BottomIncisors2_C_L_end","translation":[0.000846568262,0.0088405218,-0.000301127031],"rotation":[-0.0207699761,-0.0808099434,-0.0461657159,0.995443165],"scale":[0.999999881,1,0.999999881]},{"name":"MJ_Jnt_BottomIncisors2_D_L_end","translation":[0.00201567775,0.00829625316,-0.000888583309],"rotation":[-0.0736892596,-0.187887713,-0.106370941,0.973628938],"scale":[0.99999994,1,1]},{"name":"MJ_Jnt_BottomIncisors2_L","translation":[0.00777394976,0.0337121673,0.00747067807],"rotation":[-0.568342209,-0.0327624716,0.00260315766,0.822135627],"scale":[1,1.00000012,1.00000012],"children":[113,114,115,116]},{"name":"MJ_Jnt_BottomCanine_A_L_end","translation":[-0.00152359251,0.00763318455,0.00188761193],"rotation":[0.0991140753,0.185036704,0.116876535,0.97070986],"scale":[1,1,1.00000012]},{"name":"MJ_Jnt_BottomCanine_B_L_end","translation":[0.000207022298,0.00919880345,0.000444805133],"rotation":[0.0239885841,-0.0141855199,-0.0115824929,0.999544501],"scale":[0.99999994,0.99999994,1]},{"name":"MJ_Jnt_BottomCanine_C_L_end","translation":[0.00131654413,0.00738535309,-0.00233235769],"rotation":[-0.159820884,-0.117874041,-0.0664272159,0.977829456],"scale":[0.99999994,1.00000012,1]},{"name":"MJ_Jnt_BottomCanine_L","translation":[0.0123869674,0.0313198976,0.00784882624],"rotation":[-0.621856034,-0.0683642775,0.00540534733,0.780123234],"scale":[0.99999994,0.99999994,0.99999994],"children":[118,119,120]},{"name":"MJ_Jnt_BottomIncisors1_A_R_end","translation":[0.00259269006,0.00835317932,0.000181995856],"rotation":[-0.0265634265,-0.242476255,-0.147888139,0.958451271],"scale":[1,0.99999994,1]},{"name":"MJ_Jnt_BottomIncisors1_B_R_end","translation":[0.000967055908,0.00866237748,-3.83232182e-05],"rotation":[-0.0072325333,-0.090552263,-0.0551317595,0.994338214],"scale":[1,0.99999994,1]},{"name":"MJ_Jnt_BottomIncisors1_C_R_end","translation":[-0.00114493491,0.00872984808,-0.000149666288],"rotation":[-0.0154108657,0.106321767,0.0638722479,0.992158532],"scale":[0.99999994,1.00000012,1]},{"name":"MJ_Jnt_BottomIncisors1_D_R_end","translation":[-0.00241482258,0.00834450964,6.20793435e-06],"rotation":[-0.0319070257,0.227500856,0.136708379,0.963605821],"scale":[1,1.00000012,1]},{"name":"MJ_Jnt_BottomIncisors1_R","translation":[-0.00261705928,0.035006579,0.00726975221],"rotation":[-0.583416164,0.0307235233,-0.00238822796,0.811588526],"children":[122,123,124,125]},{"name":"MJ_Jnt_BottomIncisors2_A_R_end","translation":[0.00209095399,0.00853733532,0.000808313373],"rotation":[0.0186281707,-0.219166905,-0.12667647,0.967249691],"scale":[0.99999994,1,1]},{"name":"MJ_Jnt_BottomIncisors2_B_R_end","translation":[0.00077066524,0.00894685462,0.00038384783],"rotation":[0.0179683547,-0.0776549056,-0.0444523357,0.995826721],"scale":[0.99999994,0.999999881,1]},{"name":"MJ_Jnt_BottomIncisors2_C_R_end","translation":[-0.00084620784,0.00884671416,-0.00030237704],"rotation":[-0.0208264757,0.0806943774,0.0461104736,0.995453954],"scale":[1,0.999999881,1]},{"name":"MJ_Jnt_BottomIncisors2_D_R_end","translation":[-0.00201542326,0.00830151606,-0.000889219227],"rotation":[-0.0736666396,0.187702522,0.106299751,0.973674178],"scale":[0.999999881,1,0.99999994]},{"name":"MJ_Jnt_BottomIncisors2_R","translation":[-0.00777304964,0.0337127261,0.00747499848],"rotation":[-0.568431556,0.0327388905,-0.00254741311,0.82207495],"children":[127,128,129,130]},{"name":"MJ_Jnt_BottomCanine_A_R_end","translation":[0.00152366515,0.00763094844,0.00188887049],"rotation":[0.0991988182,-0.185135841,-0.116934203,0.970675349],"scale":[1,0.999999881,1]},{"name":"MJ_Jnt_BottomCanine_B_R_end","translation":[-0.000207427423,0.0091987215,0.000445134705],"rotation":[0.0240012482,0.0142120011,0.0116038956,0.999543548],"scale":[1.00000012,1.00000012,1]},{"name":"MJ_Jnt_BottomCanine_C_R_end","translation":[-0.00131631689,0.00738917151,-0.00233373558],"rotation":[-0.159821406,0.117810234,0.0663749054,0.977840602]},{"name":"MJ_Jnt_BottomCanine_R","translation":[-0.0123850312,0.0313205309,0.00785401184],"rotation":[-0.621869624,0.0685075074,-0.00535766035,0.780100107],"scale":[1.00000012,1,1],"children":[132,133,134]},{"name":"MJ_Jnt_TopIncisors1_A_L_end","translation":[-0.00333901914,0.00798645988,-0.000534739054],"rotation":[0.0136334654,-0.22093831,0.198463038,0.954784214],"scale":[0.999999881,0.99999994,0.999999821]},{"name":"MJ_Jnt_TopIncisors1_B_L_end","translation":[-0.000914345263,0.00853638072,-0.00012353521],"rotation":[-0.00398185616,-0.0601542331,0.0536611862,0.996737778],"scale":[0.99999994,0.99999994,0.99999994]},{"name":"MJ_Jnt_TopIncisors1_C_L_end","translation":[0.0011804495,0.00856451783,0.000142554549],"rotation":[0.013464856,0.0762298927,-0.0675926805,0.994705498]},{"name":"MJ_Jnt_TopIncisors1_D_L_end","translation":[0.00307292584,0.00813665986,0.000515940774],"rotation":[0.0647751614,0.193308473,-0.169917658,0.964138985],"scale":[1,1,0.99999994]},{"name":"MJ_Jnt_TopIncisors1_L","translation":[0.00339954579,0.0369499512,-0.0077491519],"rotation":[0.606160164,0.0360929966,-0.00286688586,0.794518054],"children":[136,137,138,139]},{"name":"MJ_Jnt_TopIncisors2_A_L_end","translation":[-0.00205958122,0.00718899025,-0.0019721284],"rotation":[-0.100415595,-0.19435899,0.158566132,0.962807417],"scale":[1,0.999999762,0.999999821]},{"name":"MJ_Jnt_TopIncisors2_B_L_end","translation":[-0.000535478815,0.00753241824,-0.000417842413],"rotation":[-0.026013907,-0.0453917645,0.0366557091,0.997957528],"scale":[0.99999994,0.999999881,0.99999994]},{"name":"MJ_Jnt_TopIncisors2_C_L_end","translation":[0.000767996535,0.00743414089,0.000779050402],"rotation":[0.0550968125,0.0627603531,-0.0478686169,0.995356262],"scale":[1,0.999999881,1]},{"name":"MJ_Jnt_TopIncisors2_D_L_end","translation":[0.00182706024,0.00701508438,0.00161098037],"rotation":[0.126778677,0.141628325,-0.107663341,0.975846946],"scale":[0.99999994,0.99999994,0.999999821]},{"name":"MJ_Jnt_TopIncisors2_L","translation":[0.00891156774,0.0348998606,-0.00735828187],"rotation":[0.601415515,0.10879305,-0.00858362205,0.791447937],"scale":[0.999999881,1,0.99999994],"children":[141,142,143,144]},{"name":"MJ_Jnt_TeethTongue_C","translation":[-5.63475027e-08,0.0469369963,0.0489670001],"rotation":[0.760364592,-3.38556019e-05,-3.28364149e-05,0.649496555],"scale":[1,0.99999994,0.99999994],"children":[93,98,103,107,112,117,121,126,131,135,140,145]},{"name":"MJ_Jnt_FaceBorder_L_3","translation":[0.0700579807,0.131510958,0.0405560955],"rotation":[0.0665072501,-0.264153838,-0.264153242,0.925214887],"scale":[1.00000012,1.00000012,1]},{"name":"Jnt_Head","translation":[1.02670056e-13,0.0561908074,1.67638063e-08],"rotation":[-0.111206122,2.42530882e-06,2.52682582e-07,0.993797362],"scale":[1,1,0.99999994],"children":[7,8,9,10,11,12,13,14,15,16,17,18,19,20,21,22,23,24,25,26,27,28,29,30,31,32,33,34,35,36,37,38,39,40,41,42,43,44,45,46,47,48,49,50,51,52,53,54,55,56,57,58,59,60,61,62,63,64,65,66,67,68,69,70,71,72,73,74,75,76,77,78,79,80,81,82,83,84,85,86,87,88,89,146,147]},{"name":"Jnt_Neck","translation":[0,0.247715876,0.00072781113],"rotation":[0.142791823,-1.69527982e-06,-2.44578331e-07,0.989752769],"scale":[1,0.99999994,0.999999881],"children":[148]},{"name":"Jnt_Spine","translation":[0,1.2666626,-0.0642896369],"rotation":[-0.0619927645,0,0,0.998076618],"scale":[1,0.999999881,1],"children":[4,6,149]},{"name":"Jnt_Root","rotation":[0.0301830284,0,0,0.999544382],"children":[2,150]},{"name":"IBA","children":[0]},{"name":"MouthBlurGeo","children":[1]},{"name":"Armature","children":[152,153,151]}],"scenes":[{"name":"Scene","nodes":[154]}],"scene":0}